/* XPM */
static char *Collectible[] = {
/* columns rows colors chars-per-pixel */
"16 16 3 1",
"  c black",
". c gray100",
"X c None",
/* pixels */
"XXXXX......XXXXX",
"XXXX........XXXX",
"XX............XX",
"XX............XX",
"X..............X",
"................",
"................",
"................",
"................",
"................",
"................",
"X..............X",
"XX............XX",
"XX............XX",
"XXXX........XXXX",
"XXXXX......XXXXX"
};
