/* XPM */
static const char *enemy[] = {
/* columns rows colors chars-per-pixel */
"50 64 229 2 ",
"   c #060102",
".  c #0B0205",
"X  c #0F0208",
"o  c #13040A",
"O  c #1A040E",
"+  c #1C080B",
"@  c #110507",
"#  c #1E0412",
"$  c #170813",
"%  c #230A0E",
"&  c #240515",
"*  c #280617",
"=  c #2D061B",
"-  c #2A0B13",
";  c #310E14",
":  c #32071C",
">  c #35091D",
",  c #381117",
"<  c #2E1010",
"1  c #2B0825",
"2  c #3C0923",
"3  c #3A0A27",
"4  c #34112B",
"5  c #3D193A",
"6  c #341230",
"7  c #4B161E",
"8  c #45161A",
"9  c #501C1D",
"0  c #420A26",
"q  c #460B29",
"w  c #4D0B2C",
"e  c #4B0F26",
"r  c #510C2E",
"t  c #4D1522",
"y  c #451025",
"u  c #5B1B25",
"i  c #561629",
"p  c #470634",
"a  c #550D31",
"s  c #5C0D34",
"d  c #53023C",
"f  c #451637",
"g  c #591237",
"h  c #621C2B",
"j  c #6A1F2B",
"k  c #601D26",
"l  c #610E37",
"z  c #640F39",
"x  c #6B0F3D",
"c  c #621334",
"v  c #641A32",
"b  c #63123B",
"n  c #6E103F",
"m  c #6B1C32",
"M  c #741A3A",
"N  c #701E2D",
"B  c #572137",
"V  c #5E3C30",
"C  c #6D222C",
"Z  c #692A27",
"A  c #73242E",
"S  c #75292A",
"D  c #732234",
"F  c #7B2433",
"G  c #7D2933",
"H  c #7A2437",
"J  c #6B3034",
"K  c #7D443A",
"L  c #68683D",
"P  c #61631B",
"I  c #491442",
"U  c #55164A",
"Y  c #530B44",
"T  c #6C1340",
"R  c #6B1B44",
"E  c #761144",
"W  c #781145",
"Q  c #7B154A",
"!  c #7D184D",
"~  c #75194B",
"^  c #7D1E53",
"/  c #63004B",
"(  c #482248",
")  c #572549",
"_  c #592856",
"`  c #652948",
"'  c #782A49",
"]  c #662E57",
"[  c #792155",
"{  c #5F2F60",
"}  c #622D62",
"|  c #6C346A",
" . c #783C79",
".. c #6F3871",
"X. c #787545",
"o. c #822636",
"O. c #832935",
"+. c #892C36",
"@. c #83253A",
"#. c #862A3A",
"$. c #8B2C3A",
"%. c #8D263D",
"&. c #932B3C",
"*. c #9B2E3E",
"=. c #883337",
"-. c #933236",
";. c #93313C",
":. c #9B333E",
">. c #9E3839",
",. c #842F2F",
"<. c #A4393B",
"1. c #B03E3F",
"2. c #907917",
"3. c #8B1B4B",
"4. c #831748",
"5. c #911F4C",
"6. c #821C53",
"7. c #8C2643",
"8. c #8A2746",
"9. c #942A43",
"0. c #9D2D43",
"q. c #94234C",
"w. c #9C2C4B",
"e. c #97254B",
"r. c #9C3341",
"t. c #86235C",
"y. c #89235E",
"u. c #802057",
"i. c #A42D4B",
"p. c #AB2F4E",
"a. c #A42E44",
"s. c #A33443",
"d. c #AB3344",
"f. c #AC3945",
"g. c #AD3349",
"h. c #AE3A49",
"j. c #A73745",
"k. c #B23C45",
"l. c #B3344C",
"z. c #BB364D",
"x. c #B43C4A",
"c. c #BC3E4D",
"v. c #B03547",
"b. c #A52C51",
"n. c #A92B52",
"m. c #A83251",
"M. c #B53252",
"N. c #BB3355",
"B. c #B93658",
"V. c #B02E55",
"C. c #8D2662",
"Z. c #8F2865",
"A. c #902967",
"S. c #C0384E",
"D. c #C53A52",
"F. c #C3365B",
"G. c #C93855",
"H. c #D33B59",
"J. c #DD3E5E",
"K. c #CC3963",
"L. c #C53862",
"P. c #D73D69",
"I. c #9A564B",
"U. c #8F4E45",
"Y. c #A7474C",
"T. c #BA4242",
"R. c #BF404F",
"E. c #B54350",
"W. c #A2544E",
"Q. c #846B48",
"!. c #98794E",
"~. c #926C4D",
"^. c #C3414D",
"/. c #C74647",
"(. c #DA4E4E",
"). c #C44152",
"_. c #CC4455",
"`. c #D14555",
"'. c #DA4857",
"]. c #DF5050",
"[. c #E34C5A",
"{. c #E94E5D",
"}. c #EB5357",
"|. c #F35757",
" X c #E64162",
".X c #F45162",
"XX c #FE5566",
"oX c #E94274",
"OX c #758647",
"+X c #8E8D07",
"@X c #B5B511",
"#X c #BFC520",
"$X c #D1D210",
"%X c #E1E10F",
"&X c #E7E916",
"*X c #C9D530",
"=X c #D9E332",
"-X c #E4EA27",
";X c #EBF32D",
":X c #E6F33A",
">X c #999458",
",X c #8C8F52",
"<X c #94AA5B",
"1X c #93A956",
"2X c #A4B347",
"3X c #9EB663",
"4X c #A7B664",
"5X c #A4AC61",
"6X c #A79F51",
"7X c #BCD158",
"8X c #ABC46A",
"9X c #B2CA6D",
"0X c #BCD567",
"qX c #BCD875",
"wX c #D6E84E",
"eX c #E5F448",
"rX c #E4F956",
"tX c #C3DD6B",
"yX c #C9E87A",
"uX c #DDFB77",
"iX c #D0EE7C",
"pX c #E6FE69",
"aX c #E1FE77",
"sX c #C7DC58",
"dX c #CCEE80",
"fX c #DDFE89",
"gX c #D5F682",
"hX c #E1FF88",
"jX c None",
/* pixels */
"jXjXjXjXjXjXjXjXjXjXjXjXjXjXjXjXjXjXjXjXjXjXjXjXjXjXjXjXjXjXjXjXjXjXjXjXjXjXjXjXjXjXjXjXjXjXjXjXjXjX",
"jXjXjXjXjXjXjXjXjXjXjXjXjXjXjXjXjXjXjXjXjXjXjXjXjXjXjXjXjXjXjXjXjXjXjXjXjXjXjXjXjXjXjXjXjXjXjXjXjXjX",
"jXjXjXjXjXjXjXjXjXjXjXjXjXjXjXjXjXjXjXjXjXjXjXjXjXjXjXjXjXjXjXjXjXjXjXjXjXjXjXjXjXjXjXjXjXjXjXjXjXjX",
"jXjXjXjXjXjXjXjXjXjXjXjXjXjXjXjXjX- 7 u 7 % jXjX% h C % jXjXjXjXjXjXjXjXjXjXjXjXjXjXjXjXjXjXjXjXjXjX",
"jXjXjXjXjXjXjXjXjXjXjXjXjXjXjXX u *.d.d.d.&.u % j d.g.F + 8 u ; jXjXjXjXjXjXjXjXjXjXjXjXjXjXjXjXjXjX",
"jXjXjXjXjXjXjXjXjXjXjXjXjXjXjXt d.z.S.z.z.v.d.&.A F s.d.C 0.$.j ; jXjXjXjXjXjXjXjXjXjXjXjXjXjXjXjXjX",
"jXjXjXjXjXjXjXjXjXjXjXjXjXjX; d.H.c.Y.W.Y.h.l.g.d.*.s.d.&.O.*.&.u @ jXjXjXjXjXjXjXjXjXjXjXjXjXjXjXjX",
"jXjXjXjXjXjXjXjXjXjXjXo 7 7 F H.I.4XyXdXyX5X~.h.l.d.d.d.*.O.A F s.F - jXjXjXjXjXjXjXjXjXjXjXjXjXjXjX",
"jXjXjXjXjXjXjXjXjXjX. j d.o.z.Y.9XhXaXaXaXhXiX>Xj.D.v.d.d.d.d.O.A d.*.8 jXjXjXjXjXjXjXjXjXjXjXjXjXjX",
"jXjXjXjXjXjXjXjXjXjXo *.D.l.$.L fXaX-X&X;XaXfXgXL &.H.G.z.l.v.g.O.O.g.r.8 jXjXjXjXjXjXjXjXjXjXjXjXjX",
"jXjXjXjXjXjXjXjXjXjXjXV !.6X<X<XhXrX$XP %XrXfXhX1X,X!.W.Y.Y.d.z.*.A 0.@.$.% . jXjXjXjXjXjXjXjXjXjXjX",
"jXjXjXjXjXjXjXjXjXjXjXOX*X#XsX4XhXrX%X+X%XrXfXgX<XuX:X*XtXqXQ.H.g.A N.B.o.A t % jXjXjXjXjXjXjXjXjXjX",
"jXjXjXjXjXjXjXjXjXjXjX1X*X@XwX<XfXaX:X&X;XuXfXgX<XuX$X+XeXhX5XH.D.$.g.M.&.s.u j 7 @ jXjXjXjXjXjXjXjX",
"jXjXjXjXjXjXjXjXjXjXjXP wX=X2XX.8XfXtX7XiXfXdX4XL 0X-X$XeXfX>XH.H.d.d.d.d.d.$.; 7 % jXjXjXjXjXjXjXjX",
"jXjXjXjXjXjX< 8 % + , &.Q.,XqXdX<XX.K =.Q.8X1X9X0X1X7XeXuXqXI. Xz.a.d.d.d.g.#.C +   jXjXjXjXjXjXjXjX",
"jXjXjXjXjXjX9 /././.O.d.U.0X=XrX,XO.d.d.G OXiXeX=XwX3X,X!.I.J. X@.a.d.d.d.N.o.*.i @ jXjXjXjXjXjXjXjX",
"jXjXjXjXjXjXjX8 S S G a.~.*X+X@X=.d.g.o.V yXpX@X+X;XhX8XG G.G.&.$.g.*.O.d.d.s.g.j   jXjXjXjXjXjXjXjX",
"jXjXjXjXjXjXjXjX+ ,.^.%.!.:X%X2.*.g.s.N K dXaX-X$XeXfXyXU.&.O.&.g.&.k.<.O.*.d.d.&.+ jXjXjXjXjXjXjXjX",
"jXjXjXjXjXjX, S /.|.<.F I.yX2XZ d.d.*.F O.<XfXaXpXhXfX5Xh.v.d.s.*.^.>.}./.-.O.s.d.8 jXjXjXjXjXjXjXjX",
"jXjXjXjXjXZ ].|.}.-.A F l.Q.V F g.g.&.F &.J >XqXqX9X,XE.D.d.d.d.+./.T.>.].}.T.O.g.j jXjXjXjXjXjXjXjX",
"jXjXjXjXjX9 -.,.8 + &.&.a.a.j +.d.d.&.F s.O.D.E.E.E.J.G.&.d.s.:.].>.T.<.u -.-.+.g.$.+ jXjXjXjXjXjXjX",
"jXjXjXjXjXjXjXjXjX7 d.d.o.j F #.S._.*.F g.O.l. X X XN.o.*.d.d.O.T.}.<./.k.A F s.d.0.- jXjXjXjXjXjXjX",
"jXjXjXjXjXjXjXjX@ @.v.d.*.$.:.$.'..Xs.A v.D.F &.O.o.o.*.d.d.d.s.O.-.A 1.|.].<.F 0.d.8 jXjXjXjXjXjXjX",
"jXjXjXjXjXjXjXjX; g.N.M.0.h._.c..X.X`.$.v.XXk.O.d.d.d.l.l.l.g.d.d.*.*.G T.}.|./.O.d.u jXjXjXjXjXjXjX",
"jXjXjXjXjXjXjXjXt N.N.N.9.).'.^.XXXXXXk.x.XX.X$.*.d.l.N.N.N.N.l.g.g.g.d.O.-./.(.O.s.C jXjXjXjXjXjXjX",
"jXjXjXjXjXjXjXjXm N.N.N.#.[._.:.XXXXXX`.^.XXXX`.O.l.N.N.N.N.N.N.N.N.N.N.N.0.#.#.0.g.F . jXjXjXjXjXjX",
"jXjXjXjXjXjXjXX 7.N.N.p.G k.:.C .XXXXX{.h.XXXXXX;.i.N.N.N.N.N.N.N.N.N.N.N.N.l.N.N.v.F X jXjXjXjXjXjX",
"jXjXjXjXjXjXjX; p.N.N.9.:.f.:.C .XXXXXXXh..XXXXX`.9.N.N.N.N.N.N.N.N.F.P.N.N.M.N.N.M.F . jXjXjXjXjXjX",
"jXjXjXjXjXjX, 9.N.N.M.&.j.j.$.C .XXXXXXXx.'.XXXX.X%.N.N.N.N.N.N.F.M.P.oX7.M.N.N.N.N.H   jXjXjXjXjXjX",
"jXjXjXjXjX  D F.N.i.p.C G $.k O.XXXXXXXX;.f.XXXXXXs.p.N.N.N.N.N.K.i.F.w.9.N.N.N.N.N.i.% jXjXjXjXjXjX",
"jXjXjXjXjX+ H w.p.7.F.%.G F k s.XXXXXX.X+.:.XX.X{.h.9.N.N.N.N.N.F.F.N.M.K.F.p.N.N.N.N.u jXjXjXjXjXjX",
"jXjXjXjXjXo t 9.i.7.p.N.D k O.)._.{._.[.;.:.{.'.^.x.j i.N.N.N.N.F.oXb.M.oXL.9.N.N.M.i.9.@ jXjXjXjXjX",
"jXjXjXjXjXjX  h w.F.N.M.H h.r._.x.{.c._.s.:.<.^.^.h.f.F i.N.N.N.N.V.7.N.B.7.i.N.K.P.D %.+ jXjXjXjXjX",
"jXjXjXjXjXjX. > M 0.9.D s._.r.f._.[.c.c.x.r.-.k._.:.).c.o.9.N.p.i.0.p.N.p.p.N.i.F.m.;.F @ jXjXjXjXjX",
"jXjXjXjXjXO 2 z a $.r.G )._.x.A [.).:.x.x.s.$.h.s.s._._.c.k o.7.@.F.F.N.M.K.P.@.#.s.x.).u jXjXjXjXjX",
"jXjXjXjXX a a x v )._.$.)._._.:.{.k.A ;.).j.G c.G )._._.).+.h.#.h K.oXK.@.P.K.9._.c.u #.;.o jXjXjXjX",
"jXjXjXjX2 6.a x v )._.;.x._._.:.{.h.r.h._.c.A c.s._._._.).+.)._.h.9.B.w.+.9.9.c.c.m x z i @ jXjXjXjX",
"jXjXjXO ~ C.r T c x.`.h.;._._.:.[.s.)._._._.r.:.h._._._.c.$._._._.c.s.h._.)._.c.D n E W x > jXjXjXjX",
"jXjXjX0 Z.! w E z F ).).+.x._.j.s.;._._._._.f.A R._._._.s.r._._._._._._._._.).' ) 8.W E W E * jXjXjX",
"jXjXX T Z.E w E s +._._.$.G ).).s.x._._._._.).c._._._.).+.c._._._._.).)._._.x.]  .' q.E E W s o jXjX",
"jXjX# ~ 6.a l x D )._.).+.c._._._._._._._._._._._._.).O.$._._._._._.s.x._._.r.6 U _ w.4.E E E > jXjX",
"jXjX= E z r E c h._._.x.;._._._._._._._._._._._._._.x.;.;._._._._._.h.;._._.s.d d I ' 5.E E W s . jX",
"jXjX: E w n x h )._._.).c._._._._._._._._._._._._._._.).+.)._._.).).).;.s._.c.a / Y ` q.E E E x # jX",
"jXjX= z a E 2 h R._._._._._._._._._._._._._._._._._._.).+._.x.o.v H $.r.G s.).D p I ` e.E E W W * jX",
"jXjX* s l r 5 f D _._.).)._._._._._._._._._._._._._._.).$.f.i 3 f c q.w.#.C G ;.f p 8.5.E E 6.t.= jX",
"jXjX# a s = 4 g s r.`.r.x._._._._._._._._._._._._._._.c.+.h # $ B t r 3.n.i.o.G h 8.e.W E E 6.t.* jX",
"jXjXO a w = w W E c d.+.x._._._._._._._._._._._._._._.f.r.G h #.).s.C c E 3.q.q.q.3.W E E W C.~ O jX",
"jXjXO z 2 f g W W E e t x._._._._._._._._._.).f.)._.).+.c._._._.`.:.;.#.w E E E E E E E W t.C.q jXjX",
"jXjX* E 0 5 g E W s a s s._._._._._._._._._.h.&._._.r.r._._._._.).h t c s w E W E E E E 6.C.b O jXjX",
"jXjXq E w r b W z r E z $._._._._._._._._.).G s.s.H k c._._._.c.H z r x W z w z E W W W Q s O jXjXjX",
"jXO x x a W E E w n W E m )._._._._._._._.o.r c c x z v H #.H v z W s z W W n a w a s s q X jXjXjXjX",
"jX: W z s W E a b Q E E s f._._._._._.).#.c E W W W W E w z x E E W s s W E E W n 0 s z z # jXjXjXjX",
"jX0 W s s W E w t.6.E W x H _._._._.).+.c E E E E Q y.E r E W E E W s s W E E E E r W Q E = jXjXjXjX",
"jX0 W s z W z b Z.W E E 3.D s._.c.r.` m 3.E E E E Q Z.T r E E E Q Q s z W E E W l s W C.! * jXjXjXjX",
"jX2 W a x W a [ 6.E E W 8.] ` h.O.) ..8.3.E E E E 6.C.s z W E E y.6.r n W E E E w n W C.~ # jXjXjXjX",
"jX= E r E W a t.! E E E ) I I ) y } | b.4.E E E E y.^ w E E E Q Z.E r E E E E s s W Q A.b X jXjXjXjX",
"jX# z r E E a t.! E W R ( p Y ( 1 } ' b.E E E E ! Z.a z W E E t.y.a z W E W s r E E y.y.0 jXjXjXjXjX",
"jX. 2 z W E r ^ ! E 4.' ) p U 5 f } m.3.E E E Q Z.R a E E E Q A.T M W E W z r E E ! Z.T O jXjXjXjXjX",
"jXjX* E W W r T W E 3.' } _ ..( ..' V.W E E E 6.^ w E E E E y.^ y w.W W z = x E W C.6.> jXjXjXjXjXjX",
"jXjXq W E E a n W E 3.7.1  .| 6 ] m.3.E E E E W a z W E E E Q g B b.E E > : E E W 6.r . jXjXjXjXjXjX",
"jXo z W E E w z W E 4.w.= _ _ 1 ' V.E E E E W s 0 E E E E W s 6 ] e.E E # w W E W x O jXjXjXjXjXjXjX",
"jX& E E E E f g W E E e.s f ) 1 m.3.E E E W n * w W E E W n 3 I ] e.W E * s W E W 2 jXjXjXjXjXjXjXjX",
"jX* E E E x f f E E E 3.7.U } v n.E E E E E 2 . a W E E W 0 o _ ..8.4.E 2 s W E n # jXjXjXjXjXjXjXjX",
"jXO x W x w q 4 x W E W b.]  .8.3.E E E W z X $ z W E W x O jX(  .' 5.E s s W W z o jXjXjXjXjXjXjXjX"
};
