/* XPM */
static const char *enemy_right[] = {
/* columns rows colors chars-per-pixel */
"50 64 227 2 ",
"   c #060102",
".  c #0B0205",
"X  c #0F0208",
"o  c #110507",
"O  c #13040A",
"+  c #1A040E",
"@  c #1C080B",
"#  c #1E0412",
"$  c #170813",
"%  c #230A0E",
"&  c #240515",
"*  c #280617",
"=  c #2A0B13",
"-  c #2D061B",
";  c #310E14",
":  c #32071C",
">  c #35091D",
",  c #2E1010",
"<  c #381117",
"1  c #2B0825",
"2  c #3C0923",
"3  c #3A0A27",
"4  c #34112B",
"5  c #341230",
"6  c #3D193A",
"7  c #45161A",
"8  c #4B161E",
"9  c #501C1D",
"0  c #420A26",
"q  c #4B0F26",
"w  c #460B29",
"e  c #4D0B2C",
"r  c #510C2E",
"t  c #451025",
"y  c #4D1522",
"u  c #5B1B25",
"i  c #561629",
"p  c #470634",
"a  c #550D31",
"s  c #5C0D34",
"d  c #53023C",
"f  c #451637",
"g  c #591237",
"h  c #601D26",
"j  c #621C2B",
"k  c #6A1F2B",
"l  c #701E2D",
"z  c #610E37",
"x  c #640F39",
"c  c #6B0F3D",
"v  c #621334",
"b  c #641A32",
"n  c #6B1C32",
"m  c #63123B",
"M  c #6E103F",
"N  c #741A3A",
"B  c #572137",
"V  c #5E3C30",
"C  c #692A27",
"Z  c #6D222C",
"A  c #73242E",
"S  c #75292A",
"D  c #732234",
"F  c #7B2433",
"G  c #7A2437",
"H  c #7D2933",
"J  c #6B3034",
"K  c #61631B",
"L  c #7D443A",
"P  c #68683D",
"I  c #530B44",
"U  c #491442",
"Y  c #55164A",
"T  c #63004B",
"R  c #6C1340",
"E  c #6B1B44",
"W  c #761144",
"Q  c #781145",
"!  c #7B154A",
"~  c #75194B",
"^  c #7D184D",
"/  c #7D1E53",
"(  c #482248",
")  c #572549",
"_  c #592856",
"`  c #652948",
"'  c #782A49",
"]  c #662E57",
"[  c #792155",
"{  c #622D62",
"}  c #6C346A",
"|  c #6F3871",
" . c #783C79",
".. c #787545",
"X. c #842F2F",
"o. c #822636",
"O. c #832935",
"+. c #892C36",
"@. c #83253A",
"#. c #8D263D",
"$. c #862A3A",
"%. c #8B2C3A",
"&. c #932B3C",
"*. c #9B2E3E",
"=. c #883337",
"-. c #933236",
";. c #93313C",
":. c #9B333E",
">. c #9E3839",
",. c #A4393B",
"<. c #B03E3F",
"1. c #907917",
"2. c #831748",
"3. c #8B1B4B",
"4. c #911F4C",
"5. c #821C53",
"6. c #8C2643",
"7. c #8A2746",
"8. c #942A43",
"9. c #9D2D43",
"0. c #97254B",
"q. c #94234C",
"w. c #9C2C4B",
"e. c #9C3341",
"r. c #86235C",
"t. c #89235E",
"y. c #A42E44",
"u. c #A42D4B",
"i. c #AB2F4E",
"p. c #A33443",
"a. c #A73745",
"s. c #AB3344",
"d. c #AC3945",
"f. c #AD3349",
"g. c #AE3A49",
"h. c #B03547",
"j. c #B23C45",
"k. c #B3344C",
"l. c #BB364D",
"z. c #B43C4A",
"x. c #BC3E4D",
"c. c #A52C51",
"v. c #A92B52",
"b. c #B02E55",
"n. c #A83251",
"m. c #B53252",
"M. c #BB3355",
"N. c #B93658",
"B. c #8D2662",
"V. c #8F2865",
"C. c #902967",
"Z. c #C0384E",
"A. c #C53A52",
"S. c #C93855",
"D. c #C3365B",
"F. c #D33B59",
"G. c #DD3E5E",
"H. c #C53862",
"J. c #CC3963",
"K. c #D73D69",
"L. c #8F4E45",
"P. c #9A564B",
"I. c #A7474C",
"U. c #BA4242",
"Y. c #BF404F",
"T. c #A2544E",
"R. c #B54350",
"E. c #846B48",
"W. c #926C4D",
"Q. c #98794E",
"!. c #C74647",
"~. c #C3414D",
"^. c #DA4E4E",
"/. c #C44152",
"(. c #CC4455",
"). c #D14555",
"_. c #DA4857",
"`. c #DF5050",
"'. c #E34C5A",
"]. c #E94E5D",
"[. c #EB5357",
"{. c #F35757",
"}. c #E64162",
"|. c #F45162",
" X c #FE5566",
".X c #E94274",
"XX c #758647",
"oX c #8E8D07",
"OX c #B5B511",
"+X c #BFC520",
"@X c #D1D210",
"#X c #E1E10F",
"$X c #E7E916",
"%X c #C9D530",
"&X c #D9E332",
"*X c #E4EA27",
"=X c #EBF32D",
"-X c #E6F33A",
";X c #8C8F52",
":X c #999458",
">X c #A79F51",
",X c #93A956",
"<X c #94AA5B",
"1X c #A4B347",
"2X c #9EB663",
"3X c #A4AC61",
"4X c #A7B664",
"5X c #BCD158",
"6X c #ABC46A",
"7X c #B2CA6D",
"8X c #BCD567",
"9X c #BCD875",
"0X c #C7DC58",
"qX c #D6E84E",
"wX c #E5F448",
"eX c #E4F956",
"rX c #C3DD6B",
"tX c #C9E87A",
"yX c #D0EE7C",
"uX c #DDFB77",
"iX c #E6FE69",
"pX c #E1FE77",
"aX c #CCEE80",
"sX c #D5F682",
"dX c #DDFE89",
"fX c #E1FF88",
"gX c None",
/* pixels */
"gXgXgXgXgXgXgXgXgXgXgXgXgXgXgXgXgXgXgXgXgXgXgXgXgXgXgXgXgXgXgXgXgXgXgXgXgXgXgXgXgXgXgXgXgXgXgXgXgXgX",
"gXgXgXgXgXgXgXgXgXgXgXgXgXgXgXgXgXgXgXgXgXgXgXgXgXgXgXgXgXgXgXgXgXgXgXgXgXgXgXgXgXgXgXgXgXgXgXgXgXgX",
"gXgXgXgXgXgXgXgXgXgXgXgXgXgXgXgXgXgXgXgXgXgXgXgXgXgXgXgXgXgXgXgXgXgXgXgXgXgXgXgXgXgXgXgXgXgXgXgXgXgX",
"gXgXgXgXgXgXgXgXgXgXgXgXgXgXgXgXgXgXgXgXgXgX% Z j % gXgX% 8 u 8 = gXgXgXgXgXgXgXgXgXgXgXgXgXgXgXgXgX",
"gXgXgXgXgXgXgXgXgXgXgXgXgXgXgXgXgXgX; u 7 @ F f.s.k % u &.s.s.s.*.u X gXgXgXgXgXgXgXgXgXgXgXgXgXgXgX",
"gXgXgXgXgXgXgXgXgXgXgXgXgXgXgXgXgX; k %.9.Z s.p.F A &.s.h.l.l.Z.l.s.y gXgXgXgXgXgXgXgXgXgXgXgXgXgXgX",
"gXgXgXgXgXgXgXgXgXgXgXgXgXgXgXgXo u &.*.O.&.s.p.*.s.f.k.g.I.T.I.x.F.s.; gXgXgXgXgXgXgXgXgXgXgXgXgXgX",
"gXgXgXgXgXgXgXgXgXgXgXgXgXgXgX= F p.F A O.*.s.s.s.k.g.W.3XtXaXtX4XP.F.F 8 8 O gXgXgXgXgXgXgXgXgXgXgX",
"gXgXgXgXgXgXgXgXgXgXgXgXgXgX7 *.s.A O.s.s.s.s.h.A.a.:XyXfXpXpXpXfX7XI.l.o.s.k . gXgXgXgXgXgXgXgXgXgX",
"gXgXgXgXgXgXgXgXgXgXgXgXgX7 e.f.O.O.f.h.k.l.S.F.&.P sXdXpX=X$X*XpXdXP %.k.A.*.O gXgXgXgXgXgXgXgXgXgX",
"gXgXgXgXgXgXgXgXgXgXgX. % %.@.9.A *.l.s.I.I.T.Q.;X,XfXdXeX#XK @XeXfX<X<X>XQ.V gXgXgXgXgXgXgXgXgXgXgX",
"gXgXgXgXgXgXgXgXgXgX% y A o.N.M.A f.F.E.9XrX%X-XuX<XsXdXeX#XoX#XeXfX4X0X+X%XXXgXgXgXgXgXgXgXgXgXgXgX",
"gXgXgXgXgXgXgXgXo 8 k u p.&.m.f.%.A.F.3XfXwXoX@XuX<XsXdXuX=X$X-XpXdX<XqXOX%X,XgXgXgXgXgXgXgXgXgXgXgX",
"gXgXgXgXgXgXgXgX% 8 ; %.s.s.s.s.s.F.F.:XdXwX@X*X8XP 4XaXdXyX5XrXdX6X..1X&XqXK gXgXgXgXgXgXgXgXgXgXgX",
"gXgXgXgXgXgXgXgX  @ Z $.f.s.s.s.y.l.}.P.9XuXwX5X,X8X7X,X6XE.=.L ..<XaX9X;XE.&.< @ % 7 , gXgXgXgXgXgX",
"gXgXgXgXgXgXgXgXo i *.o.M.s.s.s.y.@.}.G.P.Q.;X2XqX&XwXyXXXH s.s.O.;XeX&X8XL.s.O.!.!.!.9 gXgXgXgXgXgX",
"gXgXgXgXgXgXgXgX  k f.p.s.s.O.*.f.%.&.S.S.H 6XfX=XoXOXiXtXV o.f.s.=.OXoX%XW.y.H S S 7 gXgXgXgXgXgXgX",
"gXgXgXgXgXgXgXgX@ &.s.s.*.O.,.j.&.f.&.O.&.L.tXdXwX@X*XpXaXL l p.f.*.1.#X-XQ.#.~.X.@ gXgXgXgXgXgXgXgX",
"gXgXgXgXgXgXgXgX7 s.p.O.-.!.[.>.~.*.p.s.h.g.3XdXfXiXpXdX<XO.F *.s.s.C 1XtXP.F ,.{.!.S < gXgXgXgXgXgX",
"gXgXgXgXgXgXgXgXk f.O.U.[.`.>.U.!.+.s.s.s.A.R.;X7X9X9X:XJ &.F &.f.f.F V E.k.F A -.[.{.`.C gXgXgXgXgX",
"gXgXgXgXgXgXgX@ %.f.+.-.-.u ,.U.>.`.:.p.s.&.S.G.R.R.R.A.O.p.F &.s.s.+.k y.y.&.&.@ 7 X.-.9 gXgXgXgXgX",
"gXgXgXgXgXgXgX= 9.s.p.F A j.!.,.[.U.O.s.s.*.o.M.}.}.}.k.O.f.F *.(.Z.$.F k o.s.s.8 gXgXgXgXgXgXgXgXgX",
"gXgXgXgXgXgXgX7 s.9.F ,.`.{.<.A -.O.p.s.s.s.*.o.o.O.&.F A.h.A p.|._.%.:.%.*.s.h.@.o gXgXgXgXgXgXgXgX",
"gXgXgXgXgXgXgXu s.O.!.{.[.U.H *.*.s.s.f.k.k.k.s.s.s.O.j. Xh.%.).|.|.x.(.g.9.m.M.f.; gXgXgXgXgXgXgXgX",
"gXgXgXgXgXgXgXZ p.O.^.!.-.O.s.f.f.f.k.M.M.M.M.k.s.*.%.|. Xz.j. X X X~._./.8.M.M.M.y gXgXgXgXgXgXgXgX",
"gXgXgXgXgXgX. F f.9.$.$.9.M.M.M.M.M.M.M.M.M.M.M.k.O.). X X~.). X X X:.(.'.$.M.M.M.n gXgXgXgXgXgXgXgX",
"gXgXgXgXgXgXX F h.M.M.k.M.M.M.M.M.M.M.M.M.M.M.M.u.;. X X Xg.]. X X|.Z :.j.H i.M.M.6.X gXgXgXgXgXgXgX",
"gXgXgXgXgXgX. F m.M.M.m.M.M.K.D.M.M.M.M.M.M.M.M.8.). X X|.g. X X X|.Z :.d.:.8.M.M.i.; gXgXgXgXgXgXgX",
"gXgXgXgXgXgX  G M.M.M.M.m.6..XK.m.D.M.M.M.M.M.M.#.|. X X_.z. X X X|.Z %.a.a.&.m.M.M.8.< gXgXgXgXgXgX",
"gXgXgXgXgXgX% u.M.M.M.M.M.8.w.D.u.J.M.M.M.M.M.i.p. X X Xd.;. X X X XO.h %.H Z i.u.M.D.D   gXgXgXgXgX",
"gXgXgXgXgXgXu M.M.M.M.i.D.J.m.M.D.D.M.M.M.M.M.8.g.].|. X:.+.|. X X Xp.h F H #.D.6.i.w.G @ gXgXgXgXgX",
"gXgXgXgXgXo 8.u.m.M.M.8.H..Xm.c..XD.M.M.M.M.u.k z.~._.].:.;.'.(.].(./.O.h D M.i.6.u.8.y O gXgXgXgXgX",
"gXgXgXgXgX@ #.D K.J.M.u.6.N.M.6.b.M.M.M.M.u.F d.g.~.~.,.:.p.(.x.].z.(.e.g.G m.M.D.w.j   gXgXgXgXgXgX",
"gXgXgXgXgXo F ;.n.D.u.M.i.i.M.i.9.u.i.M.8.o.x./.:.(.j.-.e.z.x.x.'.(.d.e.(.p.D 8.9.N > . gXgXgXgXgXgX",
"gXgXgXgXgXu /.z.p.$.@.K.J.m.M.D.D.@.6.o.h x.(.(.p.p.g.%.p.z.z.:./.'.A z.(./.H e.%.a x 2 + gXgXgXgXgX",
"gXgXgXgXO ;.$.u x.(.8.J.K.@.J..XJ.j $.g.+./.(.(./.H x.H a./.;.A j.].:.(.(./.%.(./.b c a a X gXgXgXgX",
"gXgXgXgXo i x c n x.x.8.8.+.w.N.8.g.(./.+./.(.(.(.p.x.A x.(.g.e.g.].:.(.(.z.;.(./.b c a 5.2 gXgXgXgX",
"gXgXgXgX> c Q W M D x.(./.(.g.p.x.(.(.(.%.x.(.(.(.g.:.e.(.(.(./.p.'.:.(.(.;.g.).z.v R r B.~ + gXgXgX",
"gXgXgX* W Q W Q 7.) ' /.(.(.(.(.(.(.(.(.e.p.(.(.(.Y.A d.(.(.(.(.;.p.a.(.z.+././.F x W e ^ V.0 gXgXgX",
"gXgXO s Q W W q.'  .] z.(.(././.(.(.(.(.x.+./.(.(.(.x./.(.(.(.(.z.p././.H %.(.(.+.s W e W V.R X gXgX",
"gXgX> W W W 2.w._ Y 5 e.(.(.z.p.(.(.(.(.(.%.O./.(.(.(.(.(.(.(.(.(.(.(.(.x.+./.(./.D c z a 5.~ # gXgX",
"gX. s Q W W 4.' U d d p.(.(.;.g.(.(.(.(.(.;.;.z.(.(.(.(.(.(.(.(.(.(.(.(.(.;.z.(.(.g.v W r x W - gXgX",
"gX# c W W W q.` I T a x.(.p.;./././.(.(./.+./.(.(.(.(.(.(.(.(.(.(.(.(.(.(.x./.(.(./.j c M e W : gXgX",
"gX* Q Q W W 0.` U p D /.p.H e.%.G b o.z.(.+./.(.(.(.(.(.(.(.(.(.(.(.(.(.(.(.(.(.(.Y.j 2 W a x - gXgX",
"gX- r.5.W W 4.7.p f ;.H Z $.w.q.v f 3 i d.%./.(.(.(.(.(.(.(.(.(.(.(.(.(.(././.(.(.D f 6 r z s * gXgX",
"gX* r.5.W W Q 0.7.j H o.u.v.3.r y B $ # j +.x.(.(.(.(.(.(.(.(.(.(.(.(.(.(.z.e.).e.s g 4 - s a # gXgX",
"gX+ ~ B.Q W W Q 3.q.q.q.3.W v Z p./.$.j H e.d.(.(.(.(.(.(.(.(.(.(.(.(.(.(.z.+.s.v W Q e - e a + gXgX",
"gXgXw B.r.Q W W W W W W W e $.;.:.).(.(.(.x.+./.(./.d./.(.(.(.(.(.(.(.(.(.z.y q W Q Q g f 2 x + gXgX",
"gXgX+ m B.5.W W W W Q W e s v y j /.(.(.(.(.e.e.(.(.&.g.(.(.(.(.(.(.(.(.(.p.s a s Q W g 6 0 W * gXgX",
"gXgXgX+ s ! Q Q Q W x e x Q c r x G x.(.(.(.x.h G p.p.H /.(.(.(.(.(.(.(.(.%.x W r x Q m r e W w gXgX",
"gXgXgXgXX w s s a e a M Q Q x s Q x b G $.G b x c v v r o.(.(.(.(.(.(.(./.n W Q M e W W Q a c c + gX",
"gXgXgXgX# x x s 0 M Q W W Q s s Q W W c x e W Q Q Q Q W v $./.(.(.(.(.(.d.s W W ! m a W Q s x Q : gX",
"gXgXgXgX- W ! Q r W W W W Q s s Q W W Q W r W t.! W W W W v +./.(.(.(.(.G c Q W 5.r.e W Q s s Q 0 gX",
"gXgXgXgX* ^ B.Q s z Q W W Q x s ! ! W W W r R V.! W W W W 3.n ` e.x.(.p.D 3.W W Q V.m x Q x s Q 0 gX",
"gXgXgXgX# ~ B.Q M e W W W Q M r 5.t.W W Q x s B.5.W W W W 3.7.| ) O.g.` ] 7.Q W W 5.[ a Q c a Q 2 gX",
"gXgXgXgXX m C.! Q s s W W W W r W V.! W W W e / t.W W W W 2.c.} { t ) U U ) W W W ^ r.a Q W r W - gX",
"gXgXgXgXgX0 t.t.W W r s Q W Q x a t.r.W W Q x a V.^ W W W W c.' { 1 ( I p ( E Q W ^ r.a W W r x # gX",
"gXgXgXgXgX+ R V.^ W W r x Q W Q N R C.! W W W a E V.! W W W 3.n.{ f 6 Y p ) ' 2.W ^ / r W Q x 2 . gX",
"gXgXgXgXgXgX> 5.B.Q W c - x Q Q w.t / t.W W W W e / 5.W W W Q b.' | ( | _ { ' 3.W Q R r Q Q W * gXgX",
"gXgXgXgXgXgX. r 5.Q W W : > W W c.B g ! W W W Q x a Q W W W W 3.n.] 5 }  .1 6.3.W Q M a W W Q w gXgX",
"gXgXgXgXgXgXgX+ c Q W Q e # W W 0.] 5 s Q W W W W 0 s Q W W W W b.' 1 _ _ - w.2.W Q x e W W Q x O gX",
"gXgXgXgXgXgXgXgX2 Q W Q s * W Q 0.] U 3 M Q W W Q e * M Q W W W 3.n.1 ) f s 0.W W Q g f W W W W & gX",
"gXgXgXgXgXgXgXgX# M W Q s 2 W 2.7.| _ O 0 Q W W Q a . 2 W W W W W v.b { Y 6.3.W W W f f c W W W * gX",
"gXgXgXgXgXgXgXgXO x Q Q s s W 4.'  .( gX+ c Q W Q x $ X x Q W W W 3.7. .] c.Q W Q c 4 w e c Q c + gX"
};
