/* XPM */
static const char *por[] = {
/* columns rows colors chars-per-pixel */
"52 64 237 2 ",
"   c #0B870B",
".  c #0D8A0B",
"X  c #128D0C",
"o  c #188F0E",
"O  c #0E930B",
"+  c #0E9A0B",
"@  c #0B9306",
"#  c #14930D",
"$  c #1B950E",
"%  c #129A0D",
"&  c #1B9B0D",
"*  c #158C11",
"=  c #1C8F16",
"-  c #1D9414",
";  c #1B9912",
":  c #23950F",
">  c #219C0F",
",  c #299A0E",
"<  c #239B11",
"1  c #2B9D12",
"2  c #25951A",
"3  c #329F12",
"4  c #309D0E",
"5  c #13A40C",
"6  c #1AA30D",
"7  c #14AC0C",
"8  c #1AAB0E",
"9  c #14B40C",
"0  c #1CB40D",
"q  c #15BC0B",
"w  c #1ABC0C",
"e  c #13BD07",
"r  c #1CB010",
"t  c #0FA009",
"y  c #22A30E",
"u  c #27AB0F",
"i  c #21BB0E",
"p  c #2DB70F",
"a  c #24A411",
"s  c #2CA413",
"d  c #25AB11",
"f  c #2BAC12",
"g  c #2EAB18",
"h  c #34A414",
"j  c #33AC14",
"k  c #3CAB14",
"l  c #3AA817",
"z  c #2DB312",
"x  c #2CBB11",
"c  c #24B815",
"v  c #34B413",
"b  c #3CB414",
"n  c #33BD12",
"m  c #3BBB14",
"M  c #3BB31A",
"N  c #32BA0E",
"B  c #279422",
"V  c #32992A",
"C  c #2DA723",
"Z  c #39B22E",
"A  c #44AC15",
"S  c #44A616",
"D  c #4AB315",
"F  c #43BC16",
"G  c #4BBA19",
"H  c #47B617",
"J  c #53B615",
"K  c #52B318",
"L  c #52BB1A",
"P  c #58BC15",
"I  c #50AF13",
"U  c #65BE17",
"Y  c #44A926",
"T  c #4EB925",
"R  c #42A33B",
"E  c #55BA39",
"W  c #48B73B",
"Q  c #68BF3C",
"!  c #16C10B",
"~  c #1CC20C",
"^  c #1DC010",
"/  c #24C30E",
"(  c #2CC40E",
")  c #36C50E",
"_  c #2CC310",
"`  c #26C219",
"'  c #34C512",
"]  c #3CC414",
"[  c #3EC913",
"{  c #39C61C",
"}  c #39C523",
"|  c #3EC631",
" . c #53CD0E",
".. c #43C415",
"X. c #49C416",
"o. c #44C915",
"O. c #4BCB15",
"+. c #4DC518",
"@. c #4ACA19",
"#. c #43C81C",
"$. c #53CD15",
"%. c #5BCE15",
"&. c #53C319",
"*. c #5AC41A",
"=. c #53CB1A",
"-. c #5BCD1A",
";. c #5AC115",
":. c #5DD019",
">. c #40C80D",
",. c #63CC1C",
"<. c #69C818",
"1. c #72CB1A",
"2. c #64D114",
"3. c #6CD514",
"4. c #64D11B",
"5. c #6CD31C",
"6. c #75D517",
"7. c #74D51C",
"8. c #7BD61D",
"9. c #7CD81B",
"0. c #79D915",
"q. c #48C726",
"w. c #54CC23",
"e. c #5BCC22",
"r. c #55CB2B",
"t. c #57C829",
"y. c #45C431",
"u. c #5BC533",
"i. c #5CCC33",
"p. c #57C83A",
"a. c #63CB2B",
"s. c #65CC25",
"d. c #75CA25",
"f. c #6CD222",
"g. c #68D127",
"h. c #75D522",
"j. c #7DD622",
"k. c #7ED822",
"l. c #78D42B",
"z. c #66CC38",
"x. c #75CD36",
"c. c #67D13B",
"v. c #77D638",
"b. c #5CBB4D",
"n. c #6BBD5A",
"m. c #6EB94D",
"M. c #6BB763",
"N. c #58CF46",
"B. c #56CE45",
"V. c #67C747",
"C. c #71C749",
"Z. c #66D143",
"A. c #71D34C",
"S. c #77D644",
"D. c #69CB57",
"F. c #76D551",
"G. c #7DC367",
"H. c #74C369",
"J. c #82D315",
"K. c #84DA1C",
"L. c #8BDC1D",
"P. c #86D915",
"I. c #94DD1A",
"U. c #96E115",
"Y. c #9BE313",
"T. c #9BE21B",
"R. c #A3E514",
"E. c #ADEA11",
"W. c #A4E51B",
"Q. c #AAE619",
"!. c #B2EB17",
"~. c #AEEB0E",
"^. c #82D623",
"/. c #83D923",
"(. c #8CDB23",
"). c #85DA2B",
"_. c #8CDB2B",
"`. c #88D628",
"'. c #94DD23",
"]. c #92DD2A",
"[. c #99DE2C",
"{. c #86D932",
"}. c #8CDB34",
"|. c #8CDB3B",
" X c #88D735",
".X c #94DD3C",
"XX c #96DE32",
"oX c #80C929",
"OX c #9AE123",
"+X c #99E039",
"@X c #A8E527",
"#X c #B5E828",
"$X c #A7E439",
"%X c #B5E937",
"&X c #D2ED39",
"*X c #8CDC47",
"=X c #97DE47",
"-X c #87DA54",
";X c #97DD54",
":X c #87CF4B",
">X c #9AE154",
",X c #A5E349",
"<X c #A6E356",
"1X c #B5E859",
"2X c #B7E543",
"3X c #87D867",
"4X c #95DD64",
"5X c #94DD7C",
"6X c #87CF73",
"7X c #A0DA63",
"8X c #9BE163",
"9X c #ACE26B",
"0X c #A5E263",
"qX c #B3E660",
"wX c #AAE378",
"eX c #B6E77A",
"rX c #C6EE58",
"tX c #DCF047",
"yX c #C6EA69",
"uX c #C4EC70",
"iX c #9CE090",
"pX c #AAE488",
"aX c #B7E591",
"sX c #CBED87",
"dX c #D7F188",
"fX c #C8EB99",
"gX c #D9F298",
"hX c #C9ECA6",
"jX c #D1EEAD",
"kX c #D5EFB3",
"lX c #EAF7BD",
"zX c #DCEEC7",
"xX c #E6F4CC",
"cX c #E7F4D4",
"vX c #FDF9FC",
"bX c #F2F6E6",
"nX c None",
/* pixels */
"nXnXnXnXnXnXnXnXnXnXnXnXnXnXnXnXnXnXnXnXnXnXnXnXnXnXnXnXnXnXnXnXnXnXnXnXnXnXnXnXnXnXnXnXnXnXnXnXnXnXnXnX",
"nXnXnXnXnXnXnXnXnXnXnXnXnXnXnXnXnXnXnXnXnXnXnXnXnXnXnXnXnXnXnXnXnXnXnXnXnXnXnXnXnXnXnXnXnXnXnXnXnXnXnXnX",
"nXnXnXnXnXnXnXnXnXnXnXnXnXnXnXnXnXnXnXnXnXnXnXnXnXnXnXnXnXnXnXnXnXnXnXnXnXnXnXnXnXnXnXnXnXnXnXnXnXnXnXnX",
"nXnXnXnXnXnXnXnXnXnXnXnXnXnXnXnXnXnXnXnXnXz.i.t.w.w.q.u.V.V.nXnXnXnXnXnXnXnXnXnXnXnXnXnXnXnXnXnXnXnXnXnX",
"nXnXnXnXnXnXnXnXnXnXnXnXnXnXnXnXnXnXnXu.a.f.7.8.7.5.5.5.f.f.e.u.nXnXnXnXnXnXnXnXnXnXnXnXnXnXnXnXnXnXnXnX",
"nXnXnXnXnXnXnXnXnXnXnXnXnXnXnXnXnXnXV.g.8.k.=X9X{.k.h.-.-.v.j.5.h.{.nXnXnXnXnXnXnXnXnXnXnXnXnXnXnXnXnXnX",
"nXnXnXnXnXnXnXnXnXnXnXnXnXnXnXnXnXE -X.Xk.|.9XbXfXl.$.z.q.] e.j.k.).nXnXnXnXnXnXnXnXnXnXnXnXnXnXnXnXnXnX",
"nXnXnXnXnXnXnXnXnXnXnXnXnXnXnXnXnXa.h.h.^./.}.hXjX8X@.i.w.o.c.Z.*Xk.(.nXnXnXnXnXnXnXnXnXnXnXnXnXnXnXnXnX",
"nXnXnXnXnXnXnXnXnXnXnXnXnXnXnXnXu.=.{ ( :.4.2.h.j.l.-Xa.@.o.@.q.*XK.L.OXnXnXnXnXnXnXnXnXnXnXnXnXnXnXnXnX",
"nXnXnXnXnXnXnXnXnXnXnXnXnXnXnXnXq.` | _ ' %.O. .*X<X{.).4.[ [ o.s.,XL.k.4.s.nXnXnXnXnXnXnXnXnXnXnXnXnXnX",
"nXnXnXnXnXnXnXnXnXnXnXnXnXnXnXr./ ! p.{ ' 5.:.@.#.} ' :.:.' / ] 4..X'.k.8.%.f.nXnXnXnXnXnXnXnXnXnXnXnXnX",
"nXnXnXnXnXnXnXnXnXnXnXnXnXnXt.A.iXN./ ! ' $.$.%.$.N x n 0 5 6 x $.6.XX<Xf.5.{.nXnXnXnXnXnXnXnXnXnXnXnXnX",
"nXnXnXnXnXnXnXnXnXnXnXnXnXc.z.3XcXB.q ~ ' ] o.s : o 1 J < .   % i i.aXuX4.] |.[.nXnXnXnXnXnXnXnXnXnXnXnX",
"nXnXnXnXnXnXnXnXnXnXnXnXi.r.r.r.B.! ~ _ i / 8       1 G 1 .     O c 4X#XL.%.@.j.nXnXnXnXnXnXnXnXnXnXnXnX",
"nXnXnXnXnXnXnXnXnXnXnXnXw.o.o.( e ~ ' f x 9 .   o 1 , J 1.1   . . O n K.K.<X;X8._.nXnXnXnXnXnXnXnXnXnXnX",
"nXnXnXnXnXnXnXnXnXnXnXi.@.@.] ~ ` } f H _ 7   , J.I.1.J.Y.1.6 O . . $ J.L.).@XL.(.nXnXnXnXnXnXnXnXnXnXnX",
"nXnXnXnXnXnXnXnXnXnXnXr.r.o./ ! y.V.r w ~ 9 $ U 1.;...X.$.F ' w % O   K OX5.0.Y./.nXnXnXnXnXnXnXnXnXnXnX",
"nXnXnXnXnXnXnXnXnXnXa.v.pX#./ ! / =.' ~ 7 # h : . b +.m X...+.O.i 9 5 $ I.9.2.U.K.`.nXnXnXnXnXnXnXnXnXnX",
"nXnXnXnXnXnXnXnXnXnXg.^.}.[ ' ' _ ] / q # : 3 $ v O.4.@.@.@.@.O.' 9 7 X P 8.5.P.K.).nXnXnXnXnXnXnXnXnXnX",
"nXnXnXnXnXnXnXnXnX`.{..X8.] O.-.o.~ ! q h $ < k F f f j ] @.@.X.-...d o h 4.O.8.5.).nXnXnXnXnXnXnXnXnXnX",
"nXnXnXnXnXnXnXnXnX^.$X,X-._ 4.O.O.! ! 7 U l b 1 X O   4 J $.o.a d.7.@.k $ X.( 6.9.=XnXnXnXnXnXnXnXnXnXnX",
"nXnXnXnXnXnXnXnXnXg.'.8.' ' =.O.' ! ! n K h X   . %   J L.9.O.f S 8.O.P X v ( 6.L.)._.nXnXnXnXnXnXnXnXnX",
"nXnXnXnXnXnXnXnXnX*X,X4.~ ' o.o./ ! / *.< .     . . . X 1 J 4.m $ &.4.J.: d ( 4.P.K.(.nXnXnXnXnXnXnXnXnX",
"nXnXnXnXnXnXnXnXnXh./.,.} 5Xy._ ~ ! x G ;   $ v a . .   . . k +.& v 4.P.A j i %.6.^./.nXnXnXnXnXnXnXnXnX",
"nXnXnXnXnXnXnXnXnX5.^.5.} jXn.w ~ q j <.: # m ..$ . . . . . . f a s 1.U D y 7 $.5.K.^.nXnXnXnXnXnXnXnXnX",
"nXnXnXnXnXnXnXnXnX5.^.j._ 6XaX/ ! i G D $ 7 o.s . . . . . . . k F : 8.k g 7 7 o.6.K.(.nXnXnXnXnXnXnXnXnX",
"nXnXnXnXnXnXnXnXnX%.8.8.[ y.>X' q m M # + w ..o . . . . . .   D -.: &.f 5 7 9 [ 5.|.=XnXnXnXnXnXnXnXnXnX",
"nXnXnXnXnXnXnXnXnX-.).9Xw.~ O.( w G j 6 q ~ a   . . . X f m 6 j O.6 b z % 7 9 ' 4.=XqXnXnXnXnXnXnXnXnXnX",
"nXnXnXnXnXnXnXnX].8.=XkXv./ _ ~ 8 < f i ! i k X . . . # n o.x d ..d j v # 9 5 T XX/.^.}.nXnXnXnXnXnXnXnX",
"nXnXnXnXnXnXnXnX'.5.h.v.).@.x w O   y i ~ n k X h X # % % 8 d 7 m b s f # q + m.$X.X(.`.nXnXnXnXnXnXnXnX",
"nXnXnXnXnXnXnXnX/.4.7.P.,X,.G 8   . % q ~ X.< : A # i %   # % 7 H &.G j % q 7 L K..XXX+XnXnXnXnXnXnXnXnX",
"nXnXnXnXnXnXnXnX8.4.U.E.Y.P.;.% .   & ! / *.X l 3 6 ] A . # % # L 9.,.b # 7 q :.6.8.XX%XnXnXnXnXnXnXnXnX",
"nXnXnXnXnXnXnXnX4.P.E.!.OXP.K . .   h ( / &.X K , z $.9.m 6 b < <.@X,.m # 7 0 5.f.*XL.'.nXnXnXnXnXnXnXnX",
"nXnXnXnXnXnXnXnX4.P.E.%X1X7X2 . . $ H ( ~ v   <.<...O.H f v 5.h :X1Xv.X.F w z 4.4.}.I.'.nXnXnXnXnXnXnXnX",
"nXnXnXnXnXnXnXnXe.P.E.E.@XC.* .   > m / ~ d   P 6.O.' 6 % j ..s 9XsXN.o.4._ G 4.P.Q.#X(.nXnXnXnXnXnXnXnX",
"nXnXnXnXnXnXnXnX-.*X#X~.Y.h   .   & i ! ~ y   m O..._ 5 % 5 % b <XpX{ ) 4.' &.%.(.&X#X(.nXnXnXnXnXnXnXnX",
"nXnXnXnXnXnXnXnX,.g.W.E.$XY B   . O q ! ~ y . v o.v z x & # y r.wXr.( o.&.d x 2.].tX2X`.nXnXnXnXnXnXnXnX",
"nXnXnXnXnXnXnXnXw.6.Y.rXjXG.2   . O w ! ~ a   J [ ] u m ..m A.eXQ 0 w +.h % w ).}.@X1Xl.nXnXnXnXnXnXnXnX",
"nXnXnXnXnXnXnXnXj.6.U.dXlXzXR *   O q ! / y   A 2.[ X...@.w.3X|.z 9 8 L $ + [ g.q.(./.7.nXnXnXnXnXnXnXnX",
"nXnXnXnXnXnXnXnXnX5.R.!.1X6XR B   O 9 7 / z . $ P.3.3.3.2.$.@.O.8 + < H   u 6.$.e.uX'.T.nXnXnXnXnXnXnXnX",
"nXnXnXnXnXnXnXnXnXh.T.%XL.] O     O 7 O w o.y   P U.2.O.2.6.b %     k < # X.9.4.yXqXL.@XnXnXnXnXnXnXnXnX",
"nXnXnXnXnXnXnXnXnXf.L.#XL.T X V * # f . 0 o.v   $ J.@X.X+Xs.f &   s k   y -.7.<XsX)./.nXnXnXnXnXnXnXnXnX",
"nXnXnXnXnXnXnXnXnX,.U.E.(.A.- 6XB # v X 8 $.X.$   y -XxXcXF...& 1 G a X v -.}.dX$X9.(.nXnXnXnXnXnXnXnXnX",
"nXnXnXnXnXnXnXnXnXh.L.R.K.o.5 = X . v > > 7.4.n %   s A.pXF.o.m +.m & $ m ..x.,X_.^.].nXnXnXnXnXnXnXnXnX",
"nXnXnXnXnXnXnXnXnX'.P.R.K.-.7       M m v 5.k.4.' d & y ] @.@.@.@.] < # ] ] =.-..X).nXnXnXnXnXnXnXnXnXnX",
"nXnXnXnXnXnXnXnXnXf.6.#X'.8.g -   . h m o.$.8.^.5.v v v v m m m g ;   # X.f n 5.^.^.nXnXnXnXnXnXnXnXnXnX",
"nXnXnXnXnXnXnXnXnXs.v.gXgX].v % %   1 M r.@.-.k.1.*.A s 2 < k L A X   y b 2 ..^.^.{.nXnXnXnXnXnXnXnXnXnX",
"nXnXnXnXnXnXnXnXnXnXw.+XrXQ.%.6 7 . # T E o.@.$.&.< H ,.x.t.*.L 1 # f f & n.c.j.`.nXnXnXnXnXnXnXnXnXnXnX",
"nXnXnXnXnXnXnXnXnXnX=.$.3.U.L.i.Z -   H h m @.o.O.j   # ; # # & f v f O . G.S.4.l.nXnXnXnXnXnXnXnXnXnXnX",
"nXnXnXnXnXnXnXnXnXnXnX@.@.h.).0X4XZ @ 1 h > ] v g f f y & u m v s $ % .   M w.w.nXnXnXnXnXnXnXnXnXnXnXnX",
"nXnXnXnXnXnXnXnXnXnXnXu.Z.wX/.^.k.c.D.Y   V M g # . ; z ] A.q.$ O 5 C 2 J 7.h.z.nXnXnXnXnXnXnXnXnXnXnXnX",
"nXnXnXnXnXnXnXnXnXnXnXnXA.A.h.^.k.0XfXx.# B * f x r + . 6 C M p 9 % = l ).j.a.nXnXnXnXnXnXnXnXnXnXnXnXnX",
"nXnXnXnXnXnXnXnXnXnXnXnXnX} o.h.k.)./.@.D.b.. * n.H.7 C c q 9 0 W 2 , L k.g.nXnXnXnXnXnXnXnXnXnXnXnXnXnX",
"nXnXnXnXnXnXnXnXnXnXnXnXnXp.' 4.(.8.-.[ } Z.b.M.2 B 2 G.Z t O . R B A '.^.z.nXnXnXnXnXnXnXnXnXnXnXnXnXnX",
"nXnXnXnXnXnXnXnXnXnXnXnXnXnX] [ 4.=.' / / 3X5Xz.u X = 2 # O X o ; z.^.8.f.nXnXnXnXnXnXnXnXnXnXnXnXnXnXnX",
"nXnXnXnXnXnXnXnXnXnXnXnXnXnXf.[ ' o.( ` ^ #.@.w.A.m $ f q.+.,.x.*.4.7.K.d.nXnXnXnXnXnXnXnXnXnXnXnXnXnXnX",
"nXnXnXnXnXnXnXnXnXnXnXnXnXnXnXK.>.( ( B.` ( o.z.F.c.p.q.pXfXjXhX9X;X_.W.nXnXnXnXnXnXnXnXnXnXnXnXnXnXnXnX",
"nXnXnXnXnXnXnXnXnXnXnXnXnXnXnXnX'.6.6.' e ~ [ i.r.Z.N.r.wXzXvXvXvXbX<XnXnXnXnXnXnXnXnXnXnXnXnXnXnXnXnXnX",
"nXnXnXnXnXnXnXnXnXnXnXnXnXnXnXnXnXnX@X0.o.y.( ( / / $.h.S.-XkXcXxXeX@XnXnXnXnXnXnXnXnXnXnXnXnXnXnXnXnXnX",
"nXnXnXnXnXnXnXnXnXnXnXnXnXnXnXnXnXnXnXoX(.). .O.) 2.P.K.*X4.8.OX@X@XnXnXnXnXnXnXnXnXnXnXnXnXnXnXnXnXnXnX",
"nXnXnXnXnXnXnXnXnXnXnXnXnXnXnXnXnXnXnXnXnX@XW.R.Y.R.Q.Q.Q.R.W.Q.@XnXnXnXnXnXnXnXnXnXnXnXnXnXnXnXnXnXnXnX",
"nXnXnXnXnXnXnXnXnXnXnXnXnXnXnXnXnXnXnXnXnXnXnXnXnXnXnXnXnXnXnXnXnXnXnXnXnXnXnXnXnXnXnXnXnXnXnXnXnXnXnXnX",
"nXnXnXnXnXnXnXnXnXnXnXnXnXnXnXnXnXnXnXnXnXnXnXnXnXnXnXnXnXnXnXnXnXnXnXnXnXnXnXnXnXnXnXnXnXnXnXnXnXnXnXnX",
"nXnXnXnXnXnXnXnXnXnXnXnXnXnXnXnXnXnXnXnXnXnXnXnXnXnXnXnXnXnXnXnXnXnXnXnXnXnXnXnXnXnXnXnXnXnXnXnXnXnXnXnX"
};
