/* XPM */
static const char *overlay[] = {
/* columns rows colors chars-per-pixel */
"70 46 162 2 ",
"   c #81674A",
".  c #856A4B",
"X  c #886C4D",
"o  c #91734F",
"O  c #866E52",
"+  c #896F52",
"@  c #8D7253",
"#  c #8E7559",
"$  c #927554",
"%  c #957856",
"&  c #9B7C55",
"*  c #927758",
"=  c #967A59",
"-  c #9B7E5A",
";  c #9E815C",
":  c #A3845D",
">  c #AA895E",
",  c #A58760",
"<  c #A68962",
"1  c #AC8C62",
"2  c #AA8E69",
"3  c #B08F62",
"4  c #AE916A",
"5  c #B49365",
"6  c #B99766",
"7  c #BB9967",
"8  c #B3956A",
"9  c #B6996F",
"0  c #BC9B6B",
"q  c #B79B72",
"w  c #BC9E71",
"e  c #BFA072",
"r  c #C19E6C",
"t  c #C4A26E",
"y  c #C5A472",
"u  c #C9A772",
"i  c #CBA975",
"p  c #C4A678",
"a  c #CCAD7A",
"s  c #D0AD76",
"d  c #D0AF79",
"f  c #CFB07C",
"g  c #D4B37C",
"h  c #D9B67E",
"j  c #DBB87E",
"k  c #C9AE80",
"l  c #CFB484",
"z  c #D4B581",
"x  c #D8B780",
"c  c #D6B984",
"v  c #DCBC84",
"b  c #DCBF89",
"n  c #E0BF84",
"m  c #DFC087",
"M  c #DEC18B",
"N  c #DFC692",
"B  c #E2C186",
"V  c #E3C48A",
"C  c #E3C489",
"Z  c #E5C488",
"A  c #E5C588",
"S  c #E4C489",
"D  c #E6C588",
"F  c #E5C58A",
"G  c #E5C68A",
"H  c #E7C68A",
"J  c #E1C58F",
"K  c #E3C68F",
"L  c #E4C58C",
"P  c #E7C78C",
"I  c #E6C78D",
"U  c #E4C78F",
"Y  c #E5C78E",
"T  c #E3C48B",
"R  c #E8C789",
"E  c #E8C78B",
"W  c #E7C88C",
"Q  c #E7C98E",
"!  c #E6C88F",
"~  c #E7C88F",
"^  c #E6C98F",
"/  c #E7C98F",
"(  c #E7C88E",
")  c #E9C88B",
"_  c #E8C88B",
"`  c #E8C88C",
"'  c #E8C98C",
"]  c #E9C98D",
"[  c #E8C98F",
"{  c #E9CA8E",
"}  c #E8CA8F",
"|  c #E9CA8F",
" . c #E9CB8F",
".. c #E9CA8E",
"X. c #E2C690",
"o. c #E5C890",
"O. c #E7CA90",
"+. c #E7CC93",
"@. c #E6CA91",
"#. c #E9CA90",
"$. c #E9CB90",
"%. c #E9CB91",
"&. c #EACB90",
"*. c #EACB91",
"=. c #E9CC90",
"-. c #EACC90",
";. c #EBCC90",
":. c #EACC91",
">. c #EACD91",
",. c #EBCD91",
"<. c #E9CC92",
"1. c #E9CC93",
"2. c #EACD92",
"3. c #EACC93",
"4. c #EACD93",
"5. c #EACE92",
"6. c #EBCE92",
"7. c #EACE93",
"8. c #EBCE93",
"9. c #ECCE92",
"0. c #ECCF92",
"q. c #ECCF93",
"w. c #E9CF95",
"e. c #EBCE94",
"r. c #EBCF94",
"t. c #EBCD92",
"y. c #ECD093",
"u. c #EDD093",
"i. c #EBD096",
"p. c #ECD094",
"a. c #EDD094",
"s. c #EDD194",
"d. c #ECD195",
"f. c #EDD195",
"g. c #EDD294",
"h. c #EDD295",
"j. c #EED295",
"k. c #ECD096",
"l. c #ECD196",
"z. c #EDD296",
"x. c #EDD297",
"c. c #EED297",
"v. c #EED397",
"b. c #EED296",
"n. c #EFD497",
"m. c #EDD194",
"M. c #EBD199",
"N. c #EDD398",
"B. c #EDD399",
"V. c #EED398",
"C. c #EED498",
"Z. c #EFD498",
"A. c #EED499",
"S. c #EFD59A",
"D. c #EED59B",
"F. c #EFD79C",
"G. c #EED499",
"H. c #F0D69C",
"J. c #F0D89E",
"K. c #F1D9A0",
"L. c None",
"P. c black",
/* pixels */
"L.L.L.L.L.L.L.L.L.L.L.L.L.L.L.L.L.L.L.L.L.L.L.L.L.L.L.L.L.L.L.L.L.L.L.L.L.L.L.L.L.L.L.L.L.L.L.L.L.L.L.L.L.L.L.L.L.L.L.L.L.L.L.L.L.L.L.L.L.L.",
"L.L.L.L.L.L.L.L.L.L.L.L.L.L.L.L.L.L.L.L.L.L.L.L.L.L.L.L.L.L.L.L.L.L.L.L.L.L.L.L.L.L.L.L.L.L.L.L.L.L.L.L.L.L.L.L.L.L.L.L.L.L.L.L.L.L.L.L.L.L.",
"L.L.L.L.L.L.L.L.L.L.L.L.L.L.L.L.L.L.L.L.L.L.L.L.L.2 7 y 6 L.L.a i 0 3 L.y 1 < 2 2 ; = : L.L.L.L.y w y i g i p L.k c x p 0 0 8 1 L.L.L.L.L.L.",
"L.L.: 0 v %.w.M y 7 7 f g y 0 5 > > > 1 5 0 7 L.L.i x n h u v J ! B g g v g i i a t 5 0 t 5 L.v Y ! ! ;.;.Z b X.M.V.b a g x d r 5 L.L.L.L.L.",
"L.L.- 0 v ;.s.J i a g b b s t 5 7 i t r i g t 1 L.v %.%.Y v V A.A.s.{ ! ;.Y b v v g g h g u a Y s.s.s.s.s.9.s.V.A.+.x d d h d y 5 > L.L.L.L.",
"L.L.& r v { s.! a s v { ;.j d t t u t u h B h a b o.%.{ { Z { s.A.s.;.9.s.;.! ! B v v n B v m i.s.9.9.s.s.9.V.A.s.V v i 7 u r 7 5 : L.L.L.L.",
"L.L.& 7 j R y.Y u i n { s.Z h u u d x B ;.s.;.Z ;.s.;.{ { R { ;.s.s.9.9.9.s.s.;.{ o.Z ! s.;.;.V.s.;.;.s.s.w.V.A.s.B x u 5 0 u y , - L.L.L.L.",
"L.L.= 7 j Z ;.V t d Z { s.s.Y b B ;.;.;.s.s.A.V.s.s.;.%.%.%.%.;.;.s.s.s.9.s.;.%.%.y.;.w.A.s.s.s.s.%.;.s.s.s.s.A.s.B d t 7 g b u - # L.L.L.L.",
"L.L.= 7 j Z 9.B t h _ %.r.s.9.%.w.s.s.w.9.s.A.F.s.s.;.%.;.;.;.;.;.s.s.V.s.s.;.%.;.y.s.s.s.s.s.s.s.;.;.s.s.s.s.A.A.;.x p 0 i d r > % L.L.L.L.",
"L.L.% 6 j R 9.b t v { %.;.9.s.r.s.s.s.s.s.s.A.F.s.s.;.%.9.s.s.s.s.s.s.s.s.9.w.%.;.9.s.s.s.s.s.s.s.;.%.;.9.s.s.A.A.F.J f c v a 7 > o L.L.L.L.",
"L.L.o 5 h ! 9.v y v ;.;.9.y.s.s.s.s.s.s.s.V.H.H.V.s.9.;.9.s.s.s.s.s.9.s.s.9.;.;.;.9.s.s.s.s.s.s.s.;.;.;.;.y.s.V.V.J.M.h b F.J 0 ; X L.L.L.L.",
"L.L.o 3 h ! 9.v t n ;.9.9.s.s.s.s.r.w.s.s.s.A.H.A.s.9.;.9.s.s.s.s.s.s.s.s.9.9.;.;.9.9.9.s.s.s.s.9.;.s.9.9.y.s.s.s.A.F.B z M.M.i - X L.L.L.L.",
"L.L.o 1 g Z ;.x r b ;.;.y.s.s.s.s.w.;.s.s.s.A.F.A.s.s.9.9.s.s.s.s.s.s.9.;.;.;.9.;.9.;.9.s.s.s.s.9.;.9.s.s.s.s.s.s.s.A.w.z M M.f -   L.L.L.L.",
"L.L.X > s A ;.h r v %.;.s.s.s.s.s.;.;.s.s.s.s.F.s.s.s.w.9.s.s.s.s.s.s.%.;.w.9.y.s.y.s.s.s.s.s.s.9.;.w.s.9.s.s.s.s.s.r.w.c z w.h : X L.L.L.L.",
"L.L.. : i Z ;.g 0 v %.;.s.s.s.s.s.y.9.s.s.s.s.V.V.s.s.9.9.9.9.s.s.s.s.{ %.;.y.y.9.s.s.s.s.s.s.s.9.;.;.9.9.y.s.s.s.s.;.w.b i N b 3 @ L.L.L.L.",
"L.L.. : i Z ;.g 0 n ;.;.;.s.s.s.s.s.s.s.s.s.s.s.s.s.s.9.s.9.w.s.s.s.s.;.%.;.s.s.s.s.s.s.y.s.s.s.;.%.;.9.9.y.s.s.s.s.;.;.J i b J r % O L.L.L.",
"L.L.. & i Y ;.g t B ;.;.y.s.s.s.s.A.s.s.s.s.y.s.y.y.s.;.s.s.s.s.s.s.s.9.%.;.w.s.s.s.s.s.9.9.s.s.;.%.;.;.;.y.s.s.s.s.;.;.;.g v w.g > L.L.L.L.",
"L.L.. & i ! 9.h y b ;.;.y.s.s.s.s.V.s.s.s.s.y.y.y.9.;.;.s.s.y.s.s.s.s.s.;.;.;.;.s.s.s.s.s.s.s.;.;.w.w.;.;.s.s.s.s.s.s.9.s.b b w.b 9 L.L.L.L.",
"L.L.. & i { y.x u B %.;.s.s.s.s.s.s.9.s.s.s.s.y.s.s.;.%.9.s.9.y.s.s.s.s.r.;.;.;.s.s.s.s.s.s.s.9.9.;.;.;.w.s.s.s.s.s.s.s.s.{ v b v y L.L.L.L.",
"L.L.X & i ! y.v u b ;.9.9.s.s.s.s.w.;.s.s.s.s.s.s.s.;._ ;.s.9.9.y.s.s.s.w.s.9.y.s.s.s.s.s.w.w.;.9.s.;.w.s.s.s.s.9.s.s.s.A.s.B g y 2 L.L.L.L.",
"L.L.. & i Z y.v y v ;.s.9.y.9.9.s.w.%.;.s.s.s.s.s.s.;._ %.;.;.s.s.s.s.y.9.s.s.s.s.s.s.s.;.%.;.;.s.s.s.9.s.s.s.y.s.s.s.A.A.V.s.V a L.L.L.L.L.",
"L.L.. & t v ! v u v ;.s.s.9.9.y.s.s.;.;.s.s.s.s.y.s.9.%.%.;.;.w.s.s.s.y.9.s.s.y.s.s.y.s.;.{ ;.9.s.s.s.y.s.s.s.s.s.s.s.A.A.V.s.o.h y L.L.L.L.",
"L.L.+ & t g g g u h { s.y.s.s.s.V.s.;.;.s.s.s.y.9.s.;.%.%.9.;.;.y.s.s.s.y.s.9.9.s.s.s.y.9.{ ;.;.w.s.s.s.y.s.s.s.s.s.s.V.A.A.w.b x a w L.L.L.",
"L.L.@ & t B h r r h ! w.9.s.s.s.V.V.r.;.s.s.s.y.9.s.;.%.;.s.9.9.s.s.s.s.9.9.s.9.9.y.s.y.9.%.;.;.;.9.s.s.y.s.s.s.V.s.A.V.V.A.%.g d h 1 # L.L.",
"L.L.L.& t Z Y y 7 h ! w.s.s.s.s.s.A.s.;.s.s.V.s.y.y.;.%.;.s.s.s.s.s.s.s.;.;.s.y.y.s.s.s.s.;.;.9.;.;.s.s.s.s.s.s.s.s.V.A.H.F.%.p p g > + L.L.",
"L.L.L.= t Z ;.a 7 h ! ;.s.s.s.s.s.A.s.s.s.s.V.s.s.s.;.%.9.s.s.s.s.s.s.;.%.w.s.y.s.s.s.s.s.s.s.9.%.%.s.s.s.s.s.s.s.s.s.A.J.J.+.y t i ; L.L.L.",
"L.L.L.& t Z s.B u g ! ;.s.s.s.s.s.s.s.s.s.s.V.s.s.s.;.%.;.s.9.s.s.s.s.9.{ ;.s.9.s.s.s.s.s.s.s.s.%.{ 9.s.s.s.s.s.s.9.s.s.J.K.o.0 u i = L.L.L.",
"L.L.L.& t B A.;.g g ! ;.s.s.s.s.s.s.s.s.s.s.s.s.s.s.9.%.%.;.w.s.s.s.s.y.{ { 9.9.s.s.s.s.s.s.s.s.;.%.;.9.s.s.s.s.9.9.s.s.J.F.v 5 g u = L.L.L.",
"L.L.L.& t Z V.s.g i Z r.s.s.s.s.s.s.r.s.s.s.A.A.s.s.s.;.;.;.w.s.s.s.s.s.;.%.;.{ 9.s.s.s.s.s.s.s.;.%.;.y.s.s.s.;.;.s.s.s.H.s.i 5 v p L.L.L.L.",
"L.L.L.& r B A.V.x y n 9.s.s.s.s.s.w.%.9.s.s.A.A.s.s.s.9.y.9.;.s.s.s.s.9.;.;.;.%.;.s.s.s.s.s.s.9.%.;.y.s.s.s.s.y.;.s.s.s.A.o.w 0 v y : L.L.L.",
"L.L.L.& 0 B V.A.v r h ;.s.s.s.s.s.w.%.s.s.s.A.s.s.s.s.;.w.9.9.s.s.s.s.9.{ %.9.;.;.s.s.s.V.s.s.s.;.;.s.s.s.s.s.s.s.s.s.s.s.J 0 0 f 0 $ L.L.L.",
"L.L.L.& 0 n s.A.b 7 g ;.s.s.s.s.s.w.;.s.s.s.s.s.s.s.s.9.;.s.s.s.s.s.s.9.{ %.9.;.;.s.s.s.s.s.s.s.s.;.s.s.s.s.s.s.s.s.s.s.s.b i 0 0 6 # L.L.L.",
"L.L.L.= r B y.V.B r i { s.w.;.;.s.9.;.s.s.s.s.V.s.s.s.s.s.s.s.s.s.s.s.s.{ ;.;.;.r.s.s.s.s.s.s.s.s.s.s.s.9.y.s.s.s.s.s.s.s.B g i p 0 - L.L.L.",
"L.L.L.: u Z y.A.{ t t Z s.w.;.;.s.w.;.s.V.s.s.A.s.9.s.A.s.s.s.s.s.s.s.s.;.;.;.;.r.s.s.9.s.s.s.s.s.s.s.r.;.y.s.s.s.s.i.i.s.o.g v M i : L.L.L.",
"L.L.L.> a Y ;.s.{ i 0 b s.w.;.9.s.w.;.s.s.s.s.A.V.9.s.V.s.s.s.s.s.s.s.s.;.w.s.;.9.s.s.s.y.9.s.s.s.s.s.s.;.9.s.s.s.9.s.s.A.V.b h z 9 - L.L.L.",
"L.L.L.5 h Y V ;.9.g 7 v 9.w.9.;.s.s.y.s.s.s.s.A.s.;.s.s.s.s.s.s.s.s.V.s.;.w.s.s.s.s.y.s.s.;.s.s.s.s.s.s.s.s.9.s.s.s.s.s.F.J.;.Y g 4 L.L.L.L.",
"L.L.L.r v { v M s.v r a ! ;.y.9.s.s.9.;.s.V.s.V.s.;.s.s.9.;.s.s.s.s.s.s.9.w.s.s.s.s.9.9.s.s.s.s.s.s.s.s.s.s.s.s.s.s.s.A.H.F.w.o.x e L.L.L.L.",
"L.L.8 u v M h v %.b t y v Y ;.;.r.s.9.;.s.s.s.s.w.w.s.;.{ Z ;.s.w.s.s.s.;.;.s.s.s.s.s.s.s.s.s.s.s.s.9.w.r.;.s.s.s.V.V.J.J.A.w.%.M i 4 L.L.L.",
"L.L.0 7 1 w b B v u 7 7 a n Z Z ! ;.;.y.s.s.9.{ Z w.w.%.Z Z _ Y b M { ;.%.s.s.s.s.s.s.s.s.s.;.w.A.s.! Z B B ! %.w.V.A.J.A.i.o.%.%.T p L.L.L.",
"L.L.8 % X 6 B Y v 5 > 5 u h n n Z Z Z ! { { { v g %.r.{ Z n n v g i x v n { o.;.y.9.s.s.s.s.B M B.w.M v g g b v v M T ;.s.;.o.%.;.s.v 9 L.L.",
"L.L.= $ @ 6 i y y 5 > 6 i h h j B v h h v B B i L.v ! ;.B v h g y 7 z b v v h b b B Y o.%.! h a N w.b h i p b v g a d x M o.o.Y %.H.M 9 L.L.",
"L.L.= & % 5 r 7 r y r t h n v h g i i i d h v y L.L.M s.Z n h g y 0 i v h g s a u i h h v v L.L.l w.M d u 0 p y e e u i i c v a x ;.c < L.L.",
"L.L.L.- - 6 a t a h y 7 a h v g i u i t 0 y u 6 > L.z J b g i a p 5 1 1 > 1 1 1 > 1 0 y u y L.L.q a i 0 5 1 - = % % - : 1 8 8 < 0 u 7 ; L.L.",
"L.L.L.L.; > 5 1 6 0 > : 1 9 i i r 5 1 > - > > - $ L.9 e 8 < > 1 , $ $ $ + + @ @ X @ = ; > 1 L.L.L.; > L.= * L.L.L.L.L.L.L.L.# L.L.L.L.L.L.L.",
"L.L.L.L.L.L.L.L.L.L.L.L.L.L.L.L.L.L.L.L.L.L.L.L.L.L.L.L.L.L.L.L.L.L.L.L.L.L.L.L.L.L.L.L.L.L.L.L.L.L.L.L.L.L.L.L.L.L.L.L.L.L.L.L.L.L.L.L.L.L.",
"L.L.L.L.L.L.L.L.L.L.L.L.L.L.L.L.L.L.L.L.L.L.L.L.L.L.L.L.L.L.L.L.L.L.L.L.L.L.L.L.L.L.L.L.L.L.L.L.L.L.L.L.L.L.L.L.L.L.L.L.L.L.L.L.L.L.L.L.L.L."
};
