/* XPM */
static const char *player_left_2[] = {
/* columns rows colors chars-per-pixel */
"48 64 190 2 ",
"   c #040404",
".  c #0A0906",
"X  c #070708",
"o  c #070809",
"O  c #0B0B0B",
"+  c #080706",
"@  c #100E08",
"#  c #12130C",
"$  c #1D1C0E",
"%  c #0E0F10",
"&  c #0F1213",
"*  c #131414",
"=  c #161A1C",
"-  c #1B1C1C",
";  c #121718",
":  c #211D15",
">  c #201A0F",
",  c #1B201E",
"<  c #212413",
"1  c #23241C",
"2  c #2D2816",
"3  c #332917",
"4  c #302715",
"5  c #2D311A",
"6  c #363C1F",
"7  c #32361E",
"8  c #191E20",
"9  c #1E2528",
"0  c #232323",
"q  c #23292C",
"w  c #2B2C2B",
"e  c #282725",
"r  c #2C342A",
"t  c #2E3426",
"y  c #393F22",
"u  c #353B28",
"i  c #252E31",
"p  c #2D3233",
"a  c #2B3539",
"s  c #263234",
"d  c #333433",
"f  c #363B3A",
"g  c #3B3D3D",
"h  c #383B34",
"j  c #4B3C21",
"k  c #503F23",
"l  c #3D4323",
"z  c #3E452B",
"x  c #3A4138",
"c  c #454C29",
"v  c #424927",
"b  c #534225",
"n  c #4D542B",
"m  c #50582D",
"M  c #565E32",
"N  c #40403F",
"B  c #644F2C",
"V  c #69532E",
"C  c #6E5730",
"Z  c #6F5831",
"A  c #705931",
"S  c #5B6333",
"D  c #5B6434",
"F  c #656D38",
"G  c #626B37",
"H  c #67713A",
"J  c #6A743C",
"K  c #6F793E",
"L  c #707A3F",
"P  c #3A3E40",
"I  c #364144",
"U  c #3A4342",
"Y  c #39464C",
"T  c #3F4D53",
"R  c #424443",
"E  c #4B4C48",
"W  c #404F54",
"Q  c #45555C",
"!  c #485354",
"~  c #535656",
"^  c #5A5C5C",
"/  c #555858",
"(  c #5F574F",
")  c #615A52",
"_  c #737E41",
"`  c #71685E",
"'  c #4A5B63",
"]  c #4E646A",
"[  c #52656E",
"{  c #586D76",
"}  c #5D737E",
"|  c #577C79",
" . c #636565",
".. c #686B6B",
"X. c #766C63",
"o. c #7C7369",
"O. c #787A7A",
"+. c #82786E",
"@. c #7A8544",
"#. c #7C807F",
"$. c #818D48",
"%. c #85924A",
"&. c #8A984E",
"*. c #919E52",
"=. c #8D9A50",
"-. c #98A655",
";. c #9CAB58",
":. c #97A555",
">. c #A0AF59",
",. c #A4B45C",
"<. c #AAB95E",
"1. c #93877B",
"2. c #ADBD61",
"3. c #B2C364",
"4. c #BCCD69",
"5. c #B8C967",
"6. c #AFC161",
"7. c #C2D46D",
"8. c #C6D96F",
"9. c #CADD72",
"0. c #C6D970",
"q. c #CDE173",
"w. c #D2E576",
"e. c #D4E877",
"r. c #D6EB78",
"t. c #D9ED7A",
"y. c #DDF27C",
"u. c #E1F77F",
"i. c #5E7480",
"p. c #637A85",
"a. c #667D88",
"s. c #607680",
"d. c #5F8783",
"f. c #69818D",
"g. c #7F8282",
"h. c #6E8894",
"j. c #708A96",
"k. c #728D9A",
"l. c #76929F",
"z. c #6C9B95",
"x. c #7894A1",
"c. c #7E9BA9",
"v. c #7996A3",
"b. c #7DB2AC",
"n. c #868989",
"m. c #969A9A",
"M. c #AA9C8D",
"N. c #809EAC",
"B. c #82A1AE",
"V. c #9EA3A3",
"C. c #85A4B3",
"Z. c #8BABB9",
"A. c #A6AAAA",
"S. c #B4B7B7",
"D. c #C9B7A6",
"F. c #D1BFAD",
"G. c #E5FF81",
"H. c #E9FF83",
"J. c #E2CEBA",
"K. c #8FB0C1",
"L. c #91B3C3",
"P. c #99BDCE",
"I. c #96B9C9",
"U. c #9BBFD0",
"Y. c #9EC2D4",
"T. c #A4CADC",
"R. c #A0C6D7",
"E. c #BEC3C3",
"W. c #A8CFE1",
"Q. c #ABD3E6",
"!. c #AED6E9",
"~. c #AFD8EB",
"^. c #B1DAED",
"/. c #B0D9EC",
"(. c #B2DCEF",
"). c #B0DAED",
"_. c #B3DCF0",
"`. c #B3DDF0",
"'. c #B6E0F4",
"]. c #CBCECE",
"[. c #C5CBCB",
"{. c #CBD2D1",
"}. c #D5D9D9",
"|. c #EAEDED",
" X c #EBF3F2",
".X c #F4FDFC",
"XX c #FEFEFE",
"oX c #F5F6F6",
"OX c None",
"+X c black",
/* pixels */
"OXOXOXOXOXOXOXOXOXOXOXOXOXOXOXOXOXOXOXOXOXOXOXOXOXOXOXOXOXOXOXOXOXOXOXOXOXOXOXOXOXOXOXOXOXOXOXOX",
"OXOXOXOXOXOXOXOXOXOXOXOXOXOXOXOXOXOXOXOXOXO * OXOXOXOXOXOXOXOXOXOXOXOXOXOXOXOXOXOXOXOXOXOXOXOXOX",
"OXOXOXOXOXOXOXOXOXOXOXOXOXOXOXOXOXOXOXOXO   o OXOXOXOXOXOXOXOXOXOXOXOXOXOXOXOXOXOXOXOXOXOXOXOXOX",
"OXOXOXOXOXOXOXOXOXOXOXOXOXOXOXOXOXOXd o = = O OXOXOXOXOXOXOXOXOXOXOXOXOXOXOXOXOXOXOXOXOXOXOXOXOX",
"OXOXOXOXOXOXOXOXOXOXOXOXOXOXOXOXOXd o q B.' o OXOXOXOXOXOXOXOXOXOXOXOXOXOXOXOXOXOXOXOXOXOXOXOXOX",
"OXOXOXOXOXOXOXOXOXOXOXOXOXOXOXOXOXO q Z.`.a.+ OXOXOXOXOXOXOXOXOXOXOXOXOXOXOXOXOXOXOXOXOXOXOXOXOX",
"OXOXOXOXOXOXOXOXOXOXOXOXOXOXOXOXO 8 C.(._.k.o OXOXOXOXOXOXOXOXOXOXOXOXOXOXOXOXOXOXOXOXOXOXOXOXOX",
"OXOXOXOXOXOXOXOXOXOXOXOXOXOXOX* ; x.(.(._.l.o O OXOXOXOXOXOXOXOXOXOXOXw - * * * * f OXOXOXOXOXOX",
"OXOXOXOXOXOXOXOXOXOXOXOXOXOX- O f.(.(.(._.C.O   + + - OXOXOXOXOXw * o o = 9 s =   * OXOXOXOXOXOX",
"OXOXOXOXOXOXOXOXOXOXOXOXOXd + ' Q.(.(.(.(.L., F ;.n + 0 OXOX0 O o i [ x.L.Y.Z.q + OXOXOXOXOXOXOX",
"OXOXOXOXOXOXOXOXOXOXOXOXOXO q P.(.~.(.(.(.c.z 7.,.4.5 o - o & Y k.Y.(.(._.!.' + 0 OXOXOXOXOXOXOX",
"OXOXOXOXOXOXOXOXOXOXOXOXw O j.(.~.~.(.(.(.} H *.# v #   = ' C.Q.(.(.~.~.(.c.& * OXOXOXOXOXOXOXOX",
"OXOXOXOXOXOXOXOXOXOXOXOX* a T.(.~.~.~./.(.' $.H     8 [ L.!.(.(.(.(.(.(.T.I o OXOXOXOXOXOXOXOXOX",
"OXOXOXOXOXOXOXOXOXOXOXOXo { (.(.~.~./.(.Q.W :.G o Q L.!.(.(.(.(.(.(.(.(.k.O 0 OXOXOXOXOXOXOXOXOX",
"OXOXOXOXOXOXOXOXOXOXOX0 * Z.'.(.(.(.(.(.T.U <.G ' Q.(.(.(.(.(.(.(.(.(.R.a O OXOXOXOXOXOXOXOXOXOX",
"OXOXOXOXOXOXOXOXOXOXOX* 8 k.j.p.a.L.(._.L.u 4.M k._././.(.(.(.(.(.(.(.a.o 0 OXOXOXOXOXOXOXOXOXOX",
"OXOXOXOXOXOXOXOXOXOXw + # z S H M r j.!.{ M 9.v C._./.(.(.(.~.~.(.(.I.9 * OXOXOXOXOXOXOXOXOXOXOX",
"OXOXOXOXOXOXOXOXOXw o 5 ;.e.u.H.u.:.t Q u 3.4.h P.(.(.(.(.(.~.~.(.Q.' + w OXOXOXOXOXOXOXOXOXOXOX",
"OXOXOXOXOXOXOXOX0 + l 4.H.H.H.H.H.e.l 5 >.H.@.W Q.(.(.(.~.~.~.~._.C.* * OXOXOXOXOXOXOXOXOXOXOXOX",
"OXOXOXOXOXOXOXe + n 9.H.H.H.H.H.H.t.;.0.H.2.t c.(.(.(.(.~.~.~.(.W.T + OXOXOXOXOXOXOXOXOXOXOXOXOX",
"OXOXOXOXOXOXOXO 5 2.e.H.H.H.H.H.H.H.H.u.;.5 } !.(.~.~.~.~.(.(.(.x.o   - 0 d OXOXOXOXOXOXOXOXOXOX",
"OXOXOXOXOXOX0   < l &.H.H.H.H.H.H.H.H.,.6 1 k.(.~.~.~.~./.(.(.(.j.a a q = O o - d OXOXOXOXOXOXOX",
"OXOXOXOXOXOXO 5 :.7.y.H.t.4.6.7.u.H.H.q.0.&.U T.(.~.~.~.(.(.(.(.!.T.T.Y.I.x.' q o O - g OXOXOXOX",
"OXOXOXOXOX*   F w.7.<.@.c h x t ,.H.H.H.H.q.u C.(.~.(.(.(.(.(.(.(.(.(.(.(.(.!.Y.k.W 8 o w OXOXOX",
"OXOXOXOXo ; 8 t z x U ' x.U.U.Y K H.H.H.H.G.D } (.(.Y.} Z.(.(.(././.(./././.(.(.`.Q.{ X o OXOXOX",
"OXOXOX- * c.P.L.K.P.T.T.L.f.W u 2.H.H.H.H.H.%.' (.T.W # { (.(.(.~.~.(.(.(.(.~.(.T.[ & O 0 OXOXOX",
"OXOXOX0 O } N.j.j.f.[ I = l %.0.H.H.H.H.H.H.:.T T.] n D [ (.(.(././.(.(.(.(.(.L.Y + * OXOXOXOXOX",
"OXOXOXOXO + w / ^  .O.A.^ S u.H.H.H.H.H.H.H.,.U i.y 7.@.[ (.(.(.~.~./.(.(.(.B.i + - OXOXOXOXOXOX",
"OXOXOXOX- O V.oXoXoXXXXX].h 4.H.H.H.H.H.H.H.4.1 1 ,.G.H } (.~.~.(.(.(.(.Q.j.= o OXOXOXOXOXOXOXOX",
"OXOXOXOX* 0 S.S.oXXXXXXX|.E <.H.H.H.H.H.H.H.7.< @.=.%.M k.(.~.~.(.(.!.I.] % o OXOXOXOXOXOXOXOXOX",
"OXOXOXOXO 0 / w }.XXXXXX|.E <.H.G.G.H.H.H.G._ n :.6 *.z C._.~.~.(.(.Z.q   * OXOXOXOXOXOXOXOXOXOX",
"OXOXOXOX* * g.A.oXXXXXXXS.u 9.H.G.G.H.H.H.2.6 ;.v %.3.h U.(.(./.(.(.T.{ ; O OXOXOXOXOXOXOXOXOXOX",
"OXOXOXOXOXo g ].XXXXXX}.R @.G.H.G.G.G.G.H.=.%.@.n t.@.W Q.(./.(./.~.(.~.x.8 O R OXOXOXOXOXOXOXOX",
"OXOXOXOXOX-   w  .n.O.g H t.H.H.H.H.G.H.H.y.4.6 <.e.z k.(.(.(.(.~.~.~.(.(.c.8 O OXOXOXOXOXOXOXOX",
"OXOXOXOXOXOX+ S l 5 F :.e.w.q.H.H.H.H.H.H.H.;.H u.%.I T.(.(./././.~./.(.(.(.c.; * OXOXOXOXOXOXOX",
"OXOXOXOXOXOXo L :.n y.5.S l @.u.H.H.H.H.H.H.y.r.:.t N.(.(.(.(.~.(./.~./.(.(.(.a.o 0 OXOXOXOXOXOX",
"OXOXOXOXOXOXO M 7.y 5.9.;.2.e.H.H.H.H.H.H.G.8.K r k.~.(.(.(./.~.(.(.(.(.(.(._.!.] o w OXOXOXOXOX",
"OXOXOXOXOXOXO l w.K 3.H.H.H.H.H.H.H.H.H.e.J l $ [ (.(.(.(.(.~.(.!.v.p.x.l.} [ s.a.8 + g OXOXOXOX",
"OXOXOXOXOXOX- < 9.y.y.H.H.H.u.7.y.H.H.H.e.*.3.H { (.(.(./.~.~.(.Q.[ + o o o O o o + + w OXOXOXOX",
"OXOXOXOXOXOX- O S G D J %.,.7.m &.H.H.H.H.H.H.D p.(.(.(.~.~.~.~.(.Y.a   0 OXOXOXOXOXOXOXOXOXOXOX",
"OXOXOXOXOXOXOX+ 5 %.=._ S c *.M @.H.H.H.H.H.e.z c.(.(.(.(.(.(.(.(._.a.o OXOXOXOXOXOXOXOXOXOXOXOX",
"OXOXOXOXOXOXOXO < 4.H.H.G.t.e.;.9.H.H.H.H.H.;.f Y.(.(.Q.I.W._.(.(._.Z.* 0 OXOXOXOXOXOXOXOXOXOXOX",
"OXOXOXOXOXOXOXOX+ c q.H.H.H.H.H.H.H.H.H.H.e.c [ !.(.(.L.q T C.T.!.`.R.q - OXOXOXOXOXOXOXOXOXOXOX",
"OXOXOXOXOXOXOXOX- + v 5.H.H.H.H.H.H.H.H.5.m + q ' N.Q.c.o   * s ' h.L.W O OXOXOXOXOXOXOXOXOXOXOX",
"OXOXOXOXOXOXOXOXOX- + < J 2.w.t.t.q.,._ t ^ p O.#.f T Q o 0 0 * + o 8 8   w OXOXOXOXOXOXOXOXOXOX",
"OXOXOXOXOXOXOXOXOXOXOXo + # 7 l l u h R w A... . X{.n.d   d OXOXOXOXO o O OXOXOXOXOXOXOXOXOXOXOX",
"OXOXOXOXOXOXOXOXOXOXOXOX* +  .P s f ].|...R V.g ]..X.XE.0 * OXOXOXOXOXOXOXOXOXOXOXOXOXOXOXOXOXOX",
"OXOXOXOXOXOXOXOXOXOXOXOXo d {.~ | f S.}.E ! OXU n..X.X.Xn.o d OXOXOXOXOXOXOXOXOXOXOXOXOXOXOXOXOX",
"OXOXOXOXOXOXOXOXOXOXOX- o m. X! z.Q  ...R OXOXg.R }..X|.m.* 0 OXOXOXOXOXOXOXOXOXOXOXOXOXOXOXOXOX",
"OXOXOXOXOXOXOXOXOXOXOXo * ~ m.g b.b.a O.[.OXOXOXg m.].^ h e * OXOXOXOXOXOXOXOXOXOXOXOXOXOXOXOXOX",
"OXOXOXOXOXOXOXOXOXOX* % +.X.h * ] d.s g {.OXOXOX..w d ) D.o.o OXOXOXOXOXOXOXOXOXOXOXOXOXOXOXOXOX",
"OXOXOXOXOXOXOXOXOXOX* + +.J.D.E @ 4 4 > ! {.OXOXS.w ` F.J.o.o OXOXOXOXOXOXOXOXOXOXOXOXOXOXOXOXOX",
"OXOXOXOXOXOXOXOXOXOX0 + X.D.1.0 3 C C B 2 g A.OXOX~ 1 ( M.d O OXOXOXOXOXOXOXOXOXOXOXOXOXOXOXOXOX",
"OXOXOXOXOXOXOXOXOXOXOXO * e O   b A Z A b @ 1 ^ A.V...E e + d OXOXOXOXOXOXOXOXOXOXOXOXOXOXOXOXOX",
"OXOXOXOXOXOXOXOXOXOXOXOXo o   $ V A A B : 3 b 4 1 g  .n./ + g OXOXOXOXOXOXOXOXOXOXOXOXOXOXOXOXOX",
"OXOXOXOXOXOXOXOXOXOXOXOXOX-   # k C V 2 . j C A B 4 # 0 O   - OXOXOXOXOXOXOXOXOXOXOXOXOXOXOXOXOX",
"OXOXOXOXOXOXOXOXOXOX- o +   * 0 # 3 4 + + + > j b : OXN O O + w OXOXOXOXOXOXOXOXOXOXOXOXOXOXOXOX",
"OXOXOXOXOXOXOXOXOXg + O - * - OXOX*   * OX* X + . w OX* 0 - + 0 OXOXOXOXOXOXOXOXOXOXOXOXOXOXOXOX",
"OXOXOXOXOXOXOXOXOXR o o - 0 - * 0 O + OXOXOXOX* o O - - 0 + O OXOXOXOXOXOXOXOXOXOXOXOXOXOXOXOXOX",
"OXOXOXOXOXOXOXOXOXOXOXo   o - 0 *   * OXOXOXOXOXOX  * e o o OXOXOXOXOXOXOXOXOXOXOXOXOXOXOXOXOXOX",
"OXOXOXOXOXOXOXOXOXOXOXOXOXo + & O + OXOXOXOXOXOXOX+ 0 - + - OXOXOXOXOXOXOXOXOXOXOXOXOXOXOXOXOXOX",
"OXOXOXOXOXOXOXOXOXOXOXOXOXOX- o + * OXOXOXOXOXOXOX+ O + & OXOXOXOXOXOXOXOXOXOXOXOXOXOXOXOXOXOXOX",
"OXOXOXOXOXOXOXOXOXOXOXOXOXOXOXOXOXOXOXOXOXOXOXOXOX*   o OXOXOXOXOXOXOXOXOXOXOXOXOXOXOXOXOXOXOXOX",
"OXOXOXOXOXOXOXOXOXOXOXOXOXOXOXOXOXOXOXOXOXOXOXOXOXOX* OXOXOXOXOXOXOXOXOXOXOXOXOXOXOXOXOXOXOXOXOX"
};
