/* XPM */
static const char *player_right[] = {
/* columns rows colors chars-per-pixel */
"46 64 202 2 ",
"   c #020202",
".  c #080304",
"X  c #090A05",
"o  c #040509",
"O  c #06090C",
"+  c #0C0C0B",
"@  c #130E0A",
"#  c #0F110B",
"$  c #18170E",
"%  c #090B11",
"&  c #0C1114",
"*  c #0E1419",
"=  c #121313",
"-  c #1B1D14",
";  c #11161C",
":  c #151B1C",
">  c #1B1B1C",
",  c #221C15",
"<  c #1C2212",
"1  c #1C231B",
"2  c #24291B",
"3  c #352819",
"4  c #2B321A",
"5  c #343C1F",
"6  c #181E21",
"7  c #1B2123",
"8  c #1A2527",
"9  c #232222",
"0  c #232927",
"q  c #2B2E2D",
"w  c #332D28",
"e  c #2C3726",
"r  c #2B362B",
"t  c #333A27",
"y  c #333B2C",
"u  c #262C33",
"i  c #2B3335",
"p  c #293638",
"a  c #2C353D",
"s  c #333933",
"d  c #333C3C",
"f  c #3B3C3B",
"g  c #4A3B27",
"h  c #3B4623",
"j  c #3C4425",
"k  c #3A432D",
"l  c #34403D",
"z  c #3C403F",
"x  c #424B29",
"c  c #53452F",
"v  c #4A532B",
"b  c #5C4C32",
"n  c #4B5432",
"m  c #4D5636",
"M  c #535C35",
"N  c #6A5434",
"B  c #576435",
"V  c #5E6A3B",
"C  c #616B3A",
"Z  c #65713D",
"A  c #69753F",
"S  c #2D3B43",
"D  c #323D42",
"F  c #383E42",
"G  c #3C4242",
"H  c #39454C",
"J  c #3A444C",
"K  c #3D4B52",
"L  c #3F4C58",
"P  c #3D5551",
"I  c #464949",
"U  c #57544A",
"Y  c #47555A",
"T  c #48555D",
"R  c #575957",
"E  c #626D43",
"W  c #737C47",
"Q  c #4B5A62",
"!  c #4D5F68",
"~  c #4E6467",
"^  c #586468",
"/  c #5B6C73",
"(  c #586B75",
")  c #5C7074",
"_  c #676968",
"`  c #6F6C68",
"'  c #6B7070",
"]  c #61737D",
"[  c #777A79",
"{  c #857C72",
"}  c #76834B",
"|  c #798649",
" . c #78854A",
".. c #768052",
"X. c #5C8279",
"o. c #62857F",
"O. c #85954D",
"+. c #828F56",
"@. c #899855",
"#. c #919D5C",
"$. c #94A25B",
"%. c #98A759",
"&. c #8F887A",
"*. c #99A563",
"=. c #9AA865",
"-. c #A3AD69",
";. c #A6B667",
":. c #ACBB6B",
">. c #B0BC6B",
",. c #A9B671",
"<. c #B5C56D",
"1. c #BAD06E",
"2. c #B3C372",
"3. c #BBCB73",
"4. c #B8C57B",
"5. c #BDD177",
"6. c #C0CF74",
"7. c #C5D778",
"8. c #C5D67B",
"9. c #CBDC7B",
"0. c #D3E67C",
"q. c #DDF27E",
"w. c #DFF87F",
"e. c #E6FE7E",
"r. c #E8FE7E",
"t. c #677A85",
"y. c #688287",
"u. c #6C848C",
"i. c #778588",
"p. c #718D90",
"a. c #758A97",
"s. c #7B939D",
"d. c #7C97A4",
"f. c #7CACA2",
"g. c #878988",
"h. c #8C8F90",
"j. c #889698",
"k. c #9B9C9D",
"l. c #AA9A8F",
"z. c #849BA8",
"x. c #86A2AC",
"c. c #89A0AC",
"v. c #93A7AF",
"b. c #8AA5B3",
"n. c #8EAAB8",
"m. c #91ADBD",
"M. c #94B2BD",
"N. c #9CB2BA",
"B. c #A4A8A8",
"V. c #AEB6B3",
"C. c #B5B5B6",
"Z. c #B4BCB9",
"A. c #CBBFB0",
"S. c #C7D783",
"D. c #D6E883",
"F. c #D6E987",
"G. c #D9EC82",
"H. c #DEF185",
"J. c #DFF389",
"K. c #E2F685",
"L. c #E6FD83",
"P. c #E9FE84",
"I. c #E2F58A",
"U. c #E5FB8A",
"Y. c #EAFE8A",
"T. c #C0C0BE",
"R. c #E1D2BE",
"E. c #9AB7C4",
"W. c #A3BECB",
"Q. c #99C8C4",
"!. c #9ED0D1",
"~. c #A2C0CC",
"^. c #BCC2C2",
"/. c #A6C5D2",
"(. c #ABC7D4",
"). c #A4C8D6",
"_. c #A4CADA",
"`. c #ABCCDC",
"'. c #AED1DF",
"]. c #AED5E3",
"[. c #AFDBE7",
"{. c #AFDBED",
"}. c #B3D5E5",
"|. c #B2DBE6",
" X c #B3D7EB",
".X c #B2DBEC",
"XX c #B8DCEB",
"oX c #AFDBF1",
"OX c #B2DBF0",
"+X c #B8DDF2",
"@X c #C6C9C9",
"#X c #CCD2CE",
"$X c #CACDD0",
"%X c #CCD3D2",
"&X c #D7DBDB",
"*X c #DCE4E1",
"=X c #E6E9E8",
"-X c #EDF5F1",
";X c #F4F6F5",
":X c #F4FEFA",
">X c #FEFEFE",
",X c None",
/* pixels */
",X,X,X,X,X,X,X,X,X,X,X,X,X,X,X,X,X,X,X,X,X,X,X,X,X,X,X,X,X,X,X,X,X,X,X,X,X,X,X,X,X,X,X,X,X,X",
",X,X,X,X,X,X,X,X,X,X,X,X,X,X,X,X,X,X,X,X,X,X,X    . ,X,X,X,X,X,X,X,X,X,X,X,X,X,X,X,X,X,X,X,X",
",X,X,X,X,X,X,X,X,X,X,X,X,X,X,X,X,X,X,X,X,X,X,X        ,X,X,X,X,X,X,X,X,X,X,X,X,X,X,X,X,X,X,X",
",X,X,X,X,X,X,X,X,X,X,X,X,X,X,X,X,X,X,X,X,X,X,X  u H o   ,X,X,X,X,X,X,X,X,X,X,X,X,X,X,X,X,X,X",
",X,X,X,X,X,X,X,X,X,X,X,X,X,X,X,X,X,X,X,X,X,X,X  Q (.! O   ,X,X,X,X,X,X,X,X,X,X,X,X,X,X,X,X,X",
",X,X,X,X,X,X,X,X,X,X,X,X,X,X,X,X,X,X,X,X,X,X,X  t.XX'.( o   ,X,X,X,X,X,X,X,X,X,X,X,X,X,X,X,X",
",X,X,X,X,X,X,X,X,X,X,X,X,X,X,X,X,X,X,X,X,X,X,X  t..X.X`.Q o   ,X,X,X,X,X,X,X,X,X,X,X,X,X,X,X",
",X,X,X,X,X.           ,X,X,X,X,X,X,X,X,X,X      u..X.X.X(.Y     ,X,X,X,X,X,X,X,X,X,X,X,X,X,X",
",X,X,X,X.   > F a u ; o     ,X,X,X,X,X. . < $ o d..X.X.X.X~.a   ,X,X,X,X,X,X,X,X,X,X,X,X,X,X",
",X,X,X,X,X  = j.].).M.a.T 6       ,X  X W 8.,.2 z..X.X.X.X.Xb.;   ,X,X,X,X,X,X,X,X,X,X,X,X,X",
",X,X,X,X,X,X  a )..X.XXX}.E.] p %     - ,.} 2.Z ( .X.X.X{.{. X] o   ,X,X,X,X,X,X,X,X,X,X,X,X",
",X,X,X,X,X,X  o ]  X.X.X.X.X.X_.d.K * . $ o V #.K }..X.X.X{..X/.u   ,X,X,X,X,X,X,X,X,X,X,X,X",
",X,X,X,X,X,X,X  6 M..X.X.X.X.X.X.X].n.Q &   x ,.l _..X.X.X.X[.XX]   ,X,X,X,X,X,X,X,X,X,X,X,X",
",X,X,X,X,X,X,X,X  T ]..X.X.X.X.X.X.X.X Xx.i h 2.y ~..X.X.XOX|..Xm.*   ,X,X,X,X,X,X,X,X,X,X,X",
",X,X,X,X,X,X,X,X  & x..X{..X.X.X.X.X.X.X+Xc.h 5.k n..X.X X`.~._.).d   ,X,X,X,X,X,X,X,X,X,X,X",
",X,X,X,X,X,X,X,X,X  H `.{..X.X.X.X.X.X.X.XE.y S.B ] .X].y.l d l G 6   ,X,X,X,X,X,X,X,X,X,X,X",
",X,X,X,X,X,X,X,X,X  o y..X.X.X.X.X.X.X.X.X_.d >.;.r b./ t *.6.<.-.W $   ,X,X,X,X,X,X,X,X,X,X",
",X,X,X,X,X,X,X,X,X,X  8 E..X.X.X.X.X.X.X.X.XT  .U.} 1 1 ,.Y.L.L.L.Y.;.4     ,X,X,X,X,X,X,X,X",
",X,X,X,X,X,X,X,X,X,X,X  ~ .X.X.X.X.X.X.X.X+Xd.t 8.I.$.x <.P.L.L.L.P.P.3.j     ,X,X,X,X,X,X,X",
",X,X,X,X,X,X,X,X,X,X,X  * x..X.X.X.X{.{.{..X].! n 9.Y.G.K.P.L.P.P.P.e.P.S.k   ,X,X,X,X,X,X,X",
",X,X,X,X,X,X,X,X          K ]..X.X.X.X.XoX.X.X~.0 t ;.L.L.L.e.L.L.U.L.1.E x     ,X,X,X,X,X,X",
",X,X,X,X,X      & u H T ~ u.]..X.X.X.X.XOX.X.Xz.y ..O.w.Y.L.r.I.K.P.P.0.#.Z 4   ,X,X,X,X,X,X",
",X,X,X    O u ( n.).]..XOX.X X.X.X.X.X.X[.[. XQ } Y.L.L.r.K.O.n M W :.D.K.Y.=.X   ,X,X,X,X,X",
",X    : Y s.). X.X.X.X{..X.X.X.X.X.X_.}..X.X/.s <.P.L.P.P.5.0 t.a.~ s k m C M + o     ,X,X,X",
",X    d N.XXOX.X.X.X.X.X.X.X{..X.XE.S / '.OXb.k F.L.Y.Y.P.8.e ) E.`./.m.a.t.t.u.s.i   ,X,X,X",
",X,X    0 s.}..XoX{..X.X.X.X[..XXXv.0 e )  Xd.n I.L.e.e.e.U.>.M y d ~ s.M.~.~./.W.D   ,X,X,X",
",X,X,X,X  & / `..X{..X.X.X{..X.X.Xn.k ,.e a.u.M K.L.L.L.L.L.P.I.,.- R Y G F F a 8 o   ,X,X,X",
",X,X,X,X,X  o L W.XX{.{..X.XOXOX.Xm.k F.;.e H Z P.L.L.L.L.L.e.P.} R ;X;X=X&X&X^.0   ,X,X,X,X",
",X,X,X,X,X,X.   p x.[..X.X X.XOX.XQ.y 4.S. .X W Y.L.U.L.L.e.e.L.m B.>X>X>X>X-X=X`   ,X,X,X,X",
",X,X,X,X,X,X,X    ; ( M..X.X.X.X.X`.G +.x *.M M K.r.Y.L.L.L.L.U.m B.>X>X>X>Xg.f _   ,X,X,X,X",
",X,X,X,X,X,X,X,X    o ( .X{.oX.XOXOXQ  .@.j -.h %.P.e.L.L.L.L.Y.V [ >X>X>X>XC.' I   ,X,X,X,X",
",X,X,X,X,X,X,X,X  % / /. X.X{..X.X.Xu.n F.C V #.h D.L.L.e.L.L.Y.:.t T.>X>X>X>XC.>   ,X,X,X,X",
",X,X,X,X,X,X,X  * u.}. X.X.X.X.X.XOXE.r 3.9.5 *.:.q.P.L.e.L.L.L.U. .y k.@XC.[ 2   ,X,X,X,X,X",
",X,X,X,X,X,X  & u.|..X[..X{..X.X.XOX}.~ V U.O.n J.P.P.L.L.L.L.L.e.K.*.v t = n -   ,X,X,X,X,X",
",X,X,X,X,X  o ) }..X.X.X.X.X.X.X.X.X.XE.r $.D.%.q.L.L.L.L.e.P.8.V } =.D.=.5 4.2   ,X,X,X,X,X",
",X,X,X,X,Xo K `..XoX.X.X.X.X.X.X.X.X.X.Xd.e +.H.P.P.L.L.Y.L.e.G.@.Z  .q. .V 3.$   ,X,X,X,X,X",
",X,X,X,X  u E.}.].].|.}.]..X.X.X.X.X{.{..Xz.1 x #.9.L.L.L.L.e.L.Y.Y.Y.L.C $.,.X   ,X,X,X,X,X",
",X,X,X    F T d a H Q K S b..X{.{..X.X.X.X(.s E v O.L.L.L.L.K.K.L.P.P.P.9.J.#.  ,X,X,X,X,X,X",
",X,X,X                  p E..X.X.X.X.X{..X(.l 2.K.q.L.L.P.K. .$.J.8.2.$.+.#.M   ,X,X,X,X,X,X",
",X,X,X,X,X,X,X,X,X,X  O s..X.X{.oX.X.X.X{.}.H $.P.L.L.P.P.0.5 #.A 5 h M E m #   ,X,X,X,X,X,X",
",X,X,X,X,X,X,X,X,X,X  0 /..X.XoXOX.X X X{..Xt.B K.P.L.P.P.K. .*.<.6.D.I.Y.*.X   ,X,X,X,X,X,X",
",X,X,X,X,X,X,X,X,X,X  K }.oX.XXX`.u.a. XoXXXE.r :.Y.P.r.L.Y.K.L.P.P.L.Y.8.4   ,X,X,X,X,X,X,X",
",X,X,X,X,X,X,X,X,X,X  ] XX_.n.t.F o a `.XX/.a.8 t 3.P.P.P.L.P.P.P.P.P.3.j   ,X,X,X,X,X,X,X,X",
",X,X,X,X,X,X,X,X,X  O / ^ u & o     6 v.y.a I i.R <  .8.H.Y.Y.Y.K.8.+.2   o ,X,X,X,X,X,X,X,X",
",X,X,X,X,X,X,X,X,X  o O     . ,X,X  O i s 0 #X>XB.o : y n A W W M <     ,X,X,X,X,X,X,X,X,X,X",
",X,X,X,X,X,X,X,X,X,X    ,X,X,X,X,X  + k.h.R -X:XB.7 B.%X[ 1 s       ,X,X,X,X,X,X,X,X,X,X,X,X",
",X,X,X,X,X,X,X,X,X,X,X,X,X,X,X,X,X  > %X_ g.:X:XV.s &X>X' ~ X.  ,X,X,X,X,X,X,X,X,X,X,X,X,X,X",
",X,X,X,X,X,X,X,X,X,X,X,X,X,X,X,X,X  7 @XI B.:X:XZ.& _ $Xd f.X.  ,X,X,X,X,X,X,X,X,X,X,X,X,X,X",
",X,X,X,X,X,X,X,X,X,X,X,X,X,X,X,X,X  G @Xz #X:X:XZ.r ^ R P !.y.  ,X,X,X,X,X,X,X,X,X,X,X,X,X,X",
",X,X,X,X,X,X,X,X,X,X,X,X,X,X,X,X,X  ' @Xf @X=X;XZ.I B.0 p.Q.o.  ,X,X,X,X,X,X,X,X,X,X,X,X,X,X",
",X,X,X,X,X,X,X,X,X,X,X,X,X,X,X,X,X  h.&Xq q z R I > 9 # : 7 :   ,X,X,X,X,X,X,X,X,X,X,X,X,X,X",
",X,X,X,X,X,X,X,X,X,X,X,X,X,X,X,X  + Z.=Xf { l.{ U X 3 c +       ,X,X,X,X,X,X,X,X,X,X,X,X,X,X",
",X,X,X,X,X,X,X,X,X,X,X,X,X,X,X,X  q *X:X^ ` R.A.U $ b g . o ,X,X,X,X,X,X,X,X,X,X,X,X,X,X,X,X",
",X,X,X,X,X,X,X,X,X,X,X,X,X,X,X,X  f &X^.^ - &.{ @ 3 N 3   ,X,X,X,X,X,X,X,X,X,X,X,X,X,X,X,X,X",
",X,X,X,X,X,X,X,X,X,X,X,X,X,X,X,X  > q =     + $ g N N ,   ,X,X,X,X,X,X,X,X,X,X,X,X,X,X,X,X,X",
",X,X,X,X,X,X,X,X,X,X,X,X,X,X,X,X        ,X,X  $ b b c @   ,X,X,X,X,X,X,X,X,X,X,X,X,X,X,X,X,X",
",X,X,X,X,X,X,X,X,X,X,X,X,X,X,X,X,X,X,X,X,X,X  . 9 w ,     ,X,X,X,X,X,X,X,X,X,X,X,X,X,X,X,X,X",
",X,X,X,X,X,X,X,X,X,X,X,X,X,X,X,X,X,X,X,X,X,X  + k.@Xh.X   ,X,X,X,X,X,X,X,X,X,X,X,X,X,X,X,X,X",
",X,X,X,X,X,X,X,X,X,X,X,X,X,X,X,X,X,X,X,X,X,X  . f I s X .   ,X,X,X,X,X,X,X,X,X,X,X,X,X,X,X,X",
",X,X,X,X,X,X,X,X,X,X,X,X,X,X,X,X,X,X,X,X,X,X  + 9 > 9 0 9 .   ,X,X,X,X,X,X,X,X,X,X,X,X,X,X,X",
",X,X,X,X,X,X,X,X,X,X,X,X,X,X,X,X,X,X,X,X,X,X  . = + & = = .   ,X,X,X,X,X,X,X,X,X,X,X,X,X,X,X",
",X,X,X,X,X,X,X,X,X,X,X,X,X,X,X,X,X,X,X,X,X,X,X                ,X,X,X,X,X,X,X,X,X,X,X,X,X,X,X",
",X,X,X,X,X,X,X,X,X,X,X,X,X,X,X,X,X,X,X,X,X,X,X,X,X,X,X,X,X,X,X,X,X,X,X,X,X,X,X,X,X,X,X,X,X,X",
",X,X,X,X,X,X,X,X,X,X,X,X,X,X,X,X,X,X,X,X,X,X,X,X,X,X,X,X,X,X,X,X,X,X,X,X,X,X,X,X,X,X,X,X,X,X"
};
