/* XPM */
static const char *player_right_2[] = {
/* columns rows colors chars-per-pixel */
"48 64 186 2 ",
"   c #040404",
".  c #080706",
"X  c #0A0906",
"o  c #070708",
"O  c #070809",
"+  c #0B0B0B",
"@  c #100E08",
"#  c #12130C",
"$  c #1D1C0E",
"%  c #0E0F10",
"&  c #0F1213",
"*  c #131414",
"=  c #121718",
"-  c #161A1C",
";  c #1B1C1C",
":  c #201A0F",
">  c #211D15",
",  c #1B201E",
"<  c #212413",
"1  c #2D2816",
"2  c #23241C",
"3  c #302715",
"4  c #332917",
"5  c #2D311A",
"6  c #32361E",
"7  c #363C1F",
"8  c #191E20",
"9  c #1E2528",
"0  c #232323",
"q  c #282725",
"w  c #23292C",
"e  c #2B2C2B",
"r  c #2E3426",
"t  c #2C342A",
"y  c #393F22",
"u  c #353B28",
"i  c #252E31",
"p  c #263234",
"a  c #2D3233",
"s  c #2B3539",
"d  c #333433",
"f  c #383B34",
"g  c #363B3A",
"h  c #3B3D3D",
"j  c #4B3C21",
"k  c #503F23",
"l  c #3D4323",
"z  c #3E452B",
"x  c #3A4138",
"c  c #424927",
"v  c #454C29",
"b  c #534225",
"n  c #4D542B",
"m  c #50582D",
"M  c #40403F",
"N  c #565E32",
"B  c #644F2C",
"V  c #69532E",
"C  c #6E5730",
"Z  c #6F5831",
"A  c #705931",
"S  c #5B6333",
"D  c #5B6434",
"F  c #626B37",
"G  c #656D38",
"H  c #67713A",
"J  c #6A743C",
"K  c #6F793E",
"L  c #707A3F",
"P  c #3A3E40",
"I  c #364144",
"U  c #3A4342",
"Y  c #39464C",
"T  c #3F4D53",
"R  c #424443",
"E  c #4B4C48",
"W  c #5F574F",
"Q  c #404F54",
"!  c #485354",
"~  c #45555C",
"^  c #535656",
"/  c #555858",
"(  c #5A5C5C",
")  c #615A52",
"_  c #737E41",
"`  c #71685E",
"'  c #4A5B63",
"]  c #4E646A",
"[  c #52656E",
"{  c #586D76",
"}  c #5D737E",
"|  c #577C79",
" . c #636565",
".. c #686B6B",
"X. c #766C63",
"o. c #7C7369",
"O. c #787A7A",
"+. c #82786E",
"@. c #7A8544",
"#. c #7C807F",
"$. c #818D48",
"%. c #85924A",
"&. c #8A984E",
"*. c #8D9A50",
"=. c #919E52",
"-. c #97A555",
";. c #9CAB58",
":. c #A0AF59",
">. c #A4B45C",
",. c #AAB95E",
"<. c #93877B",
"1. c #ADBD61",
"2. c #AFC161",
"3. c #B2C364",
"4. c #B8C967",
"5. c #BCCD69",
"6. c #C2D46D",
"7. c #C6D96F",
"8. c #C6D970",
"9. c #CADD72",
"0. c #CDE173",
"q. c #D2E576",
"w. c #D4E877",
"e. c #D6EB78",
"r. c #D9ED7A",
"t. c #DDF27C",
"y. c #E1F77F",
"u. c #5E7480",
"i. c #607680",
"p. c #637A85",
"a. c #667D88",
"s. c #5F8783",
"d. c #69818D",
"f. c #7F8282",
"g. c #6E8894",
"h. c #708A96",
"j. c #728D9A",
"k. c #6C9B95",
"l. c #76929F",
"z. c #7894A1",
"x. c #7996A3",
"c. c #7E9BA9",
"v. c #7DB2AC",
"b. c #868989",
"n. c #969A9A",
"m. c #AA9C8D",
"M. c #809EAC",
"N. c #82A1AE",
"B. c #9EA3A3",
"V. c #85A4B3",
"C. c #8BABB9",
"Z. c #A6AAAA",
"A. c #B4B7B7",
"S. c #C9B7A6",
"D. c #D1BFAD",
"F. c #E5FF81",
"G. c #E9FF83",
"H. c #E2CEBA",
"J. c #8FB0C1",
"K. c #91B3C3",
"L. c #96B9C9",
"P. c #99BDCE",
"I. c #9BBFD0",
"U. c #9EC2D4",
"Y. c #BEC3C3",
"T. c #A0C6D7",
"R. c #A4CADC",
"E. c #A8CFE1",
"W. c #ABD3E6",
"Q. c #AED6E9",
"!. c #AFD8EB",
"~. c #B0D9EC",
"^. c #B2DCEF",
"/. c #B3DCF0",
"(. c #B3DDF0",
"). c #B6E0F4",
"_. c #C5CBCB",
"`. c #CBCECE",
"'. c #CBD2D1",
"]. c #D5D9D9",
"[. c #EAEDED",
"{. c #EBF3F2",
"}. c #F5F6F6",
"|. c #F4FDFC",
" X c #FEFEFE",
".X c None",
/* pixels */
".X.X.X.X.X.X.X.X.X.X.X.X.X.X.X.X.X.X.X.X.X.X.X.X.X.X.X.X.X.X.X.X.X.X.X.X.X.X.X.X.X.X.X.X.X.X.X.X",
".X.X.X.X.X.X.X.X.X.X.X.X.X.X.X.X.X.X.X.X.X.X.X.X.X* + .X.X.X.X.X.X.X.X.X.X.X.X.X.X.X.X.X.X.X.X.X",
".X.X.X.X.X.X.X.X.X.X.X.X.X.X.X.X.X.X.X.X.X.X.X.X.XO   + .X.X.X.X.X.X.X.X.X.X.X.X.X.X.X.X.X.X.X.X",
".X.X.X.X.X.X.X.X.X.X.X.X.X.X.X.X.X.X.X.X.X.X.X.X.X+ - - O d .X.X.X.X.X.X.X.X.X.X.X.X.X.X.X.X.X.X",
".X.X.X.X.X.X.X.X.X.X.X.X.X.X.X.X.X.X.X.X.X.X.X.X.XO ' N.w O d .X.X.X.X.X.X.X.X.X.X.X.X.X.X.X.X.X",
".X.X.X.X.X.X.X.X.X.X.X.X.X.X.X.X.X.X.X.X.X.X.X.X.X. a./.C.w + .X.X.X.X.X.X.X.X.X.X.X.X.X.X.X.X.X",
".X.X.X.X.X.X.X.X.X.X.X.X.X.X.X.X.X.X.X.X.X.X.X.X.XO j./.^.V.8 + .X.X.X.X.X.X.X.X.X.X.X.X.X.X.X.X",
".X.X.X.X.X.Xg * * * * ; e .X.X.X.X.X.X.X.X.X.X.X+ O l./.^.^.z.= * .X.X.X.X.X.X.X.X.X.X.X.X.X.X.X",
".X.X.X.X.X.X*   - p 9 - O O * e .X.X.X.X.X; . .   + V./.^.^.^.d.+ ; .X.X.X.X.X.X.X.X.X.X.X.X.X.X",
".X.X.X.X.X.X.X. w C.U.K.z.[ i O + 0 .X.X0 . n ;.G , K.^.^.^.^.W.' . d .X.X.X.X.X.X.X.X.X.X.X.X.X",
".X.X.X.X.X.X.X0 . ' Q./.^.^.U.j.Y & O ; O 5 5.>.6.z c.^.^.^.!.^.P.w + .X.X.X.X.X.X.X.X.X.X.X.X.X",
".X.X.X.X.X.X.X.X* & c.^.!.!.^.^.W.V.' -   # c # =.H } ^.^.^.!.!.^.h.+ e .X.X.X.X.X.X.X.X.X.X.X.X",
".X.X.X.X.X.X.X.X.XO I R.^.^.^.^.^.^.Q.K.[ 8     H $.' ^.~.!.!.!.^.R.s * .X.X.X.X.X.X.X.X.X.X.X.X",
".X.X.X.X.X.X.X.X.X0 + j.^.^.^.^.^.^.^.^.Q.K.~ O F -.Q W.^.~.!.!.^.^.{ O .X.X.X.X.X.X.X.X.X.X.X.X",
".X.X.X.X.X.X.X.X.X.X+ s T.^.^.^.^.^.^.^.^.^.W.' F ,.U R.^.^.^.^.^.).C.* 0 .X.X.X.X.X.X.X.X.X.X.X",
".X.X.X.X.X.X.X.X.X.X0 O a.^.^.^.^.^.^.^.~.~./.j.N 5.u K./.^.K.a.p.h.j.8 * .X.X.X.X.X.X.X.X.X.X.X",
".X.X.X.X.X.X.X.X.X.X.X* 9 L.^.^.!.!.^.^.^.~./.V.c 9.N { Q.h.t N H S z # . e .X.X.X.X.X.X.X.X.X.X",
".X.X.X.X.X.X.X.X.X.X.Xe . ' W.^.!.!.^.^.^.^.^.P.f 5.3.u ~ r -.y.G.y.w.;.5 O e .X.X.X.X.X.X.X.X.X",
".X.X.X.X.X.X.X.X.X.X.X.X* * V./.!.!.!.!.^.^.^.W.Q @.G.:.5 l w.G.G.G.G.G.5.l . 0 .X.X.X.X.X.X.X.X",
".X.X.X.X.X.X.X.X.X.X.X.X.X. T E.^.!.!.!.^.^.^.^.c.r 1.G.8.;.r.G.G.G.G.G.G.9.n . q .X.X.X.X.X.X.X",
".X.X.X.X.X.X.X.X.X.Xd 0 ;   O z.^.^.^.!.!.!.!.^.Q.} 5 ;.y.G.G.G.G.G.G.G.G.w.1.5 + .X.X.X.X.X.X.X",
".X.X.X.X.X.X.Xd ; O + - w s s h.^.^.^.~.!.!.!.!.^.j.2 7 >.G.G.G.G.G.G.G.G.&.l <   0 .X.X.X.X.X.X",
".X.X.X.Xh ; + O w ' z.L.U.R.R.Q.^.^.^.^.!.!.!.^.R.U &.8.0.G.G.y.6.2.5.r.G.t.6.-.5 + .X.X.X.X.X.X",
".X.X.Xe O 8 Q j.U.Q.^.^.^.^.^.^.^.^.^.^.^.^.!.^.V.u 0.G.G.G.G.>.r x f v @.,.6.q.G   * .X.X.X.X.X",
".X.X.XO o { W./.^.^.~.~.~.^.~.~.^.^.^.C.} U.^.^.} D F.G.G.G.G.K Y I.I.z.' U x z r 8 = O .X.X.X.X",
".X.X.X0 + & [ R.^.!.^.^.^.^.!.!.^.^.^.{ # Q R.^.' %.G.G.G.G.G.1.u Q d.K.R.R.P.J.K.P.c.* ; .X.X.X",
".X.X.X.X.X* . Y K.^.^.^.^.^.~.~.^.^.^.[ D n ] R.T -.G.G.G.G.G.G.8.%.l - I [ d.h.h.M.} + 0 .X.X.X",
".X.X.X.X.X.X; . i N.^.^.^.~.!.!.^.^.^.[ @.6.y u.U >.G.G.G.G.G.G.G.y.S ( Z.O. .( / e . + .X.X.X.X",
".X.X.X.X.X.X.X.XO - h.W.^.^.^.^.!.!.^.} H F.>.2 2 5.G.G.G.G.G.G.G.5.f `. X X}.}.}.B.+ ; .X.X.X.X",
".X.X.X.X.X.X.X.X.XO % ] L.Q.^.^.!.!.^.j.N %.*.@.< 6.G.G.G.G.G.G.G.,.E [. X X X}.A.A.0 * .X.X.X.X",
".X.X.X.X.X.X.X.X.X.X*   w C.^.^.!.!./.V.z =.7 -.n _ F.G.G.G.F.F.G.,.E [. X X X].e / 0 + .X.X.X.X",
".X.X.X.X.X.X.X.X.X.X+ = { R.^.^.~.^.^.I.f 3.%.c ;.7 1.G.G.G.F.F.G.9.u A. X X X}.Z.f.* * .X.X.X.X",
".X.X.X.X.X.X.X.XR + 8 z.!.^.!.~.^.~.^.W.Q @.r.n @.%.*.G.F.F.F.F.G.F.@.R ]. X X X`.h O .X.X.X.X.X",
".X.X.X.X.X.X.X.X+ 8 c.^.^.!.!.!.^.^.^.^.j.z w.,.7 5.t.G.G.F.G.G.G.G.r.H h O.b. .e   ; .X.X.X.X.X",
".X.X.X.X.X.X.X* = c.^.^.^.~.!.~.~.~.^.^.R.I %.y.H ;.G.G.G.G.G.G.G.0.q.w.-.G 5 l S . .X.X.X.X.X.X",
".X.X.X.X.X.X0 O a.^.^.^.~.!.~.^.!.^.^.^.^.M.r -.e.t.G.G.G.G.G.G.y.@.l S 4.t.n -.L O .X.X.X.X.X.X",
".X.X.X.X.Xe O ] Q./.^.^.^.^.^.^.!.~.^.^.^.!.j.t K 7.F.G.G.G.G.G.G.w.1.;.9.4.y 6.N + .X.X.X.X.X.X",
".X.X.X.Xh . 8 a.i.[ } l.z.p.z.Q.^.!.^.^.^.^.^.[ $ l J w.G.G.G.G.G.G.G.G.G.3.K q.l + .X.X.X.X.X.X",
".X.X.X.Xe . . O O + O O O . [ W.^.!.!.~.^.^.^.{ H 3.=.w.G.G.G.t.6.y.G.G.G.t.t.9.< ; .X.X.X.X.X.X",
".X.X.X.X.X.X.X.X.X.X.X0   s U.^.!.!.!.!.^.^.^.p.D G.G.G.G.G.G.&.m 6.>.%.J D F S + ; .X.X.X.X.X.X",
".X.X.X.X.X.X.X.X.X.X.X.XO a./.^.^.^.^.^.^.^.^.c.z w.G.G.G.G.G.@.N =.v S _ *.%.5 . .X.X.X.X.X.X.X",
".X.X.X.X.X.X.X.X.X.X.X0 * C./.^.^./.E.L.W.^.^.U.g ;.G.G.G.G.G.9.;.w.r.F.G.G.5.< + .X.X.X.X.X.X.X",
".X.X.X.X.X.X.X.X.X.X.X; w T./.Q.R.V.T w K.^.^.Q.[ v w.G.G.G.G.G.G.G.G.G.G.0.v . .X.X.X.X.X.X.X.X",
".X.X.X.X.X.X.X.X.X.X.X+ Q K.g.' p *   O c.W.M.' w . m 4.G.G.G.G.G.G.G.G.4.c . ; .X.X.X.X.X.X.X.X",
".X.X.X.X.X.X.X.X.X.Xe   8 8 O . * 0 0 O ~ T g #.O.a ( r _ >.0.r.r.q.1.J < . ; .X.X.X.X.X.X.X.X.X",
".X.X.X.X.X.X.X.X.X.X.X+ O + .X.X.X.Xd   d b.'.{. ...Z.e R f u l l 6 # . O .X.X.X.X.X.X.X.X.X.X.X",
".X.X.X.X.X.X.X.X.X.X.X.X.X.X.X.X.X.X* 0 Y.|.|.`.h B.R ..[.`.g p P  .. * .X.X.X.X.X.X.X.X.X.X.X.X",
".X.X.X.X.X.X.X.X.X.X.X.X.X.X.X.X.Xd O b.|.|.|.b.U .X! E ].A.g | ^ '.d O .X.X.X.X.X.X.X.X.X.X.X.X",
".X.X.X.X.X.X.X.X.X.X.X.X.X.X.X.X.X0 * n.[.|.].R f..X.XR .. .~ k.! {.n.O ; .X.X.X.X.X.X.X.X.X.X.X",
".X.X.X.X.X.X.X.X.X.X.X.X.X.X.X.X.X* q f ( `.n.h .X.X.X_.O.s v.v.h n.^ * O .X.X.X.X.X.X.X.X.X.X.X",
".X.X.X.X.X.X.X.X.X.X.X.X.X.X.X.X.XO o.S.) d e ...X.X.X'.h p s.] * f X.+.% * .X.X.X.X.X.X.X.X.X.X",
".X.X.X.X.X.X.X.X.X.X.X.X.X.X.X.X.XO o.H.D.` e A..X.X'.! : 3 3 @ E S.H.+.. * .X.X.X.X.X.X.X.X.X.X",
".X.X.X.X.X.X.X.X.X.X.X.X.X.X.X.X.X+ d m.W 2 ^ .X.XZ.h 1 B C C 4 0 <.S.X.. 0 .X.X.X.X.X.X.X.X.X.X",
".X.X.X.X.X.X.X.X.X.X.X.X.X.X.X.X.Xd . q E ..B.Z.( 2 @ b A Z A b   + q * + .X.X.X.X.X.X.X.X.X.X.X",
".X.X.X.X.X.X.X.X.X.X.X.X.X.X.X.X.Xh . / b. .h 2 3 b 4 > B A A V $   O O .X.X.X.X.X.X.X.X.X.X.X.X",
".X.X.X.X.X.X.X.X.X.X.X.X.X.X.X.X.X;   + 0 # 3 B A C j X 1 V C k #   ; .X.X.X.X.X.X.X.X.X.X.X.X.X",
".X.X.X.X.X.X.X.X.X.X.X.X.X.X.X.Xe . + + M .X> b j : . . . 3 4 # 0 *   . O ; .X.X.X.X.X.X.X.X.X.X",
".X.X.X.X.X.X.X.X.X.X.X.X.X.X.X.X0 . ; 0 * .Xe X . o * .X*   * .X.X; * ; + . h .X.X.X.X.X.X.X.X.X",
".X.X.X.X.X.X.X.X.X.X.X.X.X.X.X.X.X+ . 0 ; ; + O * .X.X.X.X. + 0 * ; 0 ; O O R .X.X.X.X.X.X.X.X.X",
".X.X.X.X.X.X.X.X.X.X.X.X.X.X.X.X.X.XO O q *   .X.X.X.X.X.X*   * 0 ; O   O .X.X.X.X.X.X.X.X.X.X.X",
".X.X.X.X.X.X.X.X.X.X.X.X.X.X.X.X.X.X; . ; 0 . .X.X.X.X.X.X.X. + & . O .X.X.X.X.X.X.X.X.X.X.X.X.X",
".X.X.X.X.X.X.X.X.X.X.X.X.X.X.X.X.X.X.X& . + . .X.X.X.X.X.X.X* . O ; .X.X.X.X.X.X.X.X.X.X.X.X.X.X",
".X.X.X.X.X.X.X.X.X.X.X.X.X.X.X.X.X.X.X.XO   * .X.X.X.X.X.X.X.X.X.X.X.X.X.X.X.X.X.X.X.X.X.X.X.X.X",
".X.X.X.X.X.X.X.X.X.X.X.X.X.X.X.X.X.X.X.X.X* .X.X.X.X.X.X.X.X.X.X.X.X.X.X.X.X.X.X.X.X.X.X.X.X.X.X"
};
