/* XPM */
static const char *player[] = {
/* columns rows colors chars-per-pixel */
"46 64 206 2 ",
"   c #020202",
".  c #080304",
"X  c #040509",
"o  c #06090C",
"O  c #0C0C0B",
"+  c #090A05",
"@  c #130E0A",
"#  c #18170E",
"$  c #090B11",
"%  c #0C1114",
"&  c #0E1419",
"*  c #121313",
"=  c #1B1D14",
"-  c #151B1C",
";  c #1B1B1C",
":  c #11161C",
">  c #0F110B",
",  c #221C15",
"<  c #1C2212",
"1  c #1C231B",
"2  c #24291B",
"3  c #352819",
"4  c #2B321A",
"5  c #343C1F",
"6  c #181E21",
"7  c #1B2123",
"8  c #1A2527",
"9  c #232222",
"0  c #2B2E2D",
"q  c #232927",
"w  c #2B362B",
"e  c #2C3726",
"r  c #333B2C",
"t  c #333A27",
"y  c #262C33",
"u  c #2B3335",
"i  c #2C353D",
"p  c #293638",
"a  c #333C3C",
"s  c #3B3C3B",
"d  c #333933",
"f  c #332D28",
"g  c #4A3B27",
"h  c #3C4425",
"j  c #3A432D",
"k  c #3B4623",
"l  c #34403D",
"z  c #3C403F",
"x  c #424B29",
"c  c #4A532B",
"v  c #45483A",
"b  c #5C4C32",
"n  c #4B5432",
"m  c #4D5636",
"M  c #535C35",
"N  c #53452F",
"B  c #6A5434",
"V  c #5E6A3B",
"C  c #576435",
"Z  c #616B3A",
"A  c #65713D",
"S  c #69753F",
"D  c #2D3B43",
"F  c #383E42",
"G  c #323D42",
"H  c #3C4242",
"J  c #3A444C",
"K  c #39454C",
"L  c #3D4B52",
"P  c #3F4C58",
"I  c #3D5551",
"U  c #464949",
"Y  c #48555D",
"T  c #47555A",
"R  c #575957",
"E  c #57544A",
"W  c #626D43",
"Q  c #737C47",
"!  c #666A52",
"~  c #4B5A62",
"^  c #4D5F68",
"/  c #4E6467",
"(  c #586468",
")  c #5B6C73",
"_  c #586B75",
"`  c #5C7074",
"'  c #676968",
"]  c #61737D",
"[  c #6B7070",
"{  c #777A79",
"}  c #6F6C68",
"|  c #857C72",
" . c #76834B",
".. c #798649",
"X. c #78854A",
"o. c #768052",
"O. c #5C8279",
"+. c #62857F",
"@. c #85954D",
"#. c #828F56",
"$. c #899855",
"%. c #919D5C",
"&. c #94A25B",
"*. c #98A759",
"=. c #8F887A",
"-. c #99A563",
";. c #9AA865",
":. c #ACBB6B",
">. c #A6B667",
",. c #B0BC6B",
"<. c #A9B671",
"1. c #A3AD69",
"2. c #B5C56D",
"3. c #B3C372",
"4. c #BBCB73",
"5. c #B8C57B",
"6. c #BDD177",
"7. c #BAD06E",
"8. c #C5D67B",
"9. c #CBDC7B",
"0. c #C5D778",
"q. c #C0CF74",
"w. c #D3E67C",
"e. c #DDF27E",
"r. c #DFF87F",
"t. c #E6FE7E",
"y. c #E8FE7E",
"u. c #5F7880",
"i. c #677A85",
"p. c #6C848C",
"a. c #688287",
"s. c #778588",
"d. c #758A97",
"f. c #7B939D",
"g. c #718D90",
"h. c #7C97A4",
"j. c #7CACA2",
"k. c #878988",
"l. c #889698",
"z. c #9B9C9D",
"x. c #8C8F90",
"c. c #AA9A8F",
"v. c #849BA8",
"b. c #86A2AC",
"n. c #89A0AC",
"m. c #8AA5B3",
"M. c #8EAAB8",
"N. c #91ADBD",
"B. c #94B2BD",
"V. c #9CB2BA",
"C. c #93A7AF",
"Z. c #A4A8A8",
"A. c #B4BCB9",
"S. c #B5B5B6",
"D. c #AEB6B3",
"F. c #CBBFB0",
"G. c #C7D783",
"H. c #D6E883",
"J. c #D9EC82",
"K. c #D6E987",
"L. c #DFF389",
"P. c #DEF185",
"I. c #E2F685",
"U. c #E6FD83",
"Y. c #E9FE84",
"T. c #E2F58A",
"R. c #E5FB8A",
"E. c #EAFE8A",
"W. c #C0C0BE",
"Q. c #E1D2BE",
"!. c #9AB7C4",
"~. c #A3BECB",
"^. c #99C8C4",
"/. c #9ED0D1",
"(. c #A2C0CC",
"). c #BCC2C2",
"_. c #A6C5D2",
"`. c #A4C8D6",
"'. c #A4CADA",
"]. c #ABCCDC",
"[. c #ABC7D4",
"{. c #AED1DF",
"}. c #AED5E3",
"|. c #AFDBED",
" X c #AFDBE7",
".X c #B3D5E5",
"XX c #B2DBE6",
"oX c #B3D7EB",
"OX c #B2DBEC",
"+X c #B8DCEB",
"@X c #AFDBF1",
"#X c #B2DBF0",
"$X c #B8DDF2",
"%X c #C6C9C9",
"&X c #CCD2CE",
"*X c #CCD3D2",
"=X c #D7DBDB",
"-X c #CACDD0",
";X c #DCE4E1",
":X c #E6E9E8",
">X c #F4FEFA",
",X c #FEFEFE",
"<X c #F4F6F5",
"1X c #EDF5F1",
"2X c None",
"3X c black",
/* pixels */
"2X2X2X2X2X2X2X2X2X2X2X2X2X2X2X2X2X2X2X2X2X2X2X2X2X2X2X2X2X2X2X2X2X2X2X2X2X2X2X2X2X2X2X2X2X2X",
"2X2X2X2X2X2X2X2X2X2X2X2X2X2X2X2X2X2X2X2X.     2X2X2X2X2X2X2X2X2X2X2X2X2X2X2X2X2X2X2X2X2X2X2X",
"2X2X2X2X2X2X2X2X2X2X2X2X2X2X2X2X2X2X2X        2X2X2X2X2X2X2X2X2X2X2X2X2X2X2X2X2X2X2X2X2X2X2X",
"2X2X2X2X2X2X2X2X2X2X2X2X2X2X2X2X2X2X  X J y   2X2X2X2X2X2X2X2X2X2X2X2X2X2X2X2X2X2X2X2X2X2X2X",
"2X2X2X2X2X2X2X2X2X2X2X2X2X2X2X2X2X  o ^ [.~   2X2X2X2X2X2X2X2X2X2X2X2X2X2X2X2X2X2X2X2X2X2X2X",
"2X2X2X2X2X2X2X2X2X2X2X2X2X2X2X2X  X _ {.+Xi.  2X2X2X2X2X2X2X2X2X2X2X2X2X2X2X2X2X2X2X2X2X2X2X",
"2X2X2X2X2X2X2X2X2X2X2X2X2X2X2X  X ~ ].OXOXi.  2X2X2X2X2X2X2X2X2X2X2X2X2X2X2X2X2X2X2X2X2X2X2X",
"2X2X2X2X2X2X2X2X2X2X2X2X2X2X    T [.OXOXOXp.      2X2X2X2X2X2X2X2X2X2X          . 2X2X2X2X2X",
"2X2X2X2X2X2X2X2X2X2X2X2X2X2X  i (.OXOXOXOXh.X # < . . 2X2X2X2X2X    X : y i F ;   . 2X2X2X2X",
"2X2X2X2X2X2X2X2X2X2X2X2X2X  : m.OXOXOXOXOXv.2 <.8.Q +   2X      6 Y d.B.`.}.l.*   2X2X2X2X2X",
"2X2X2X2X2X2X2X2X2X2X2X2X  X ] oX|.|.OXOXOX_ A 3. .<.=     $ p ] !..X+XOXOX`.i   2X2X2X2X2X2X",
"2X2X2X2X2X2X2X2X2X2X2X2X  y _.OX|.OXOXOX.XL %.V X # . & L h.'.OXOXOXOXOXoX] X   2X2X2X2X2X2X",
"2X2X2X2X2X2X2X2X2X2X2X2X  ] +X XOXOXOXOX'.l <.x   % ~ M.}.OXOXOXOXOXOXOXB.6   2X2X2X2X2X2X2X",
"2X2X2X2X2X2X2X2X2X2X2X  & N.OXXX#XOXOXOX(.r 3.k u b.oXOXOXOXOXOXOXOXOX}.Y   2X2X2X2X2X2X2X2X",
"2X2X2X2X2X2X2X2X2X2X2X  a `.'.(.].oXOXOXM.j 6.k n.$XOXOXOXOXOXOXOX|.OXb.%   2X2X2X2X2X2X2X2X",
"2X2X2X2X2X2X2X2X2X2X2X  6 H l a l a.}.OX] C G.r !.OXOXOXOXOXOXOXOX|.].K   2X2X2X2X2X2X2X2X2X",
"2X2X2X2X2X2X2X2X2X2X  # Q 1.2.q.-.t ) m.w >.,.a '.OXOXOXOXOXOXOXOXOXa.X   2X2X2X2X2X2X2X2X2X",
"2X2X2X2X2X2X2X2X    4 >.E.U.U.U.E.<.1 1  .R.X.Y OXOXOXOXOXOXOXOXOX!.8   2X2X2X2X2X2X2X2X2X2X",
"2X2X2X2X2X2X2X    h 4.Y.Y.U.U.U.Y.2.x &.T.8.t h.$XOXOXOXOXOXOXOXOX/   2X2X2X2X2X2X2X2X2X2X2X",
"2X2X2X2X2X2X2X  j G.Y.t.Y.Y.Y.U.Y.I.J.E.9.n ^ }.OX|.|.|.OXOXOXOXb.&   2X2X2X2X2X2X2X2X2X2X2X",
"2X2X2X2X2X2X    x W 7.U.R.U.U.t.U.U.U.>.t q (.OXOX@XOXOXOXOXOX}.L           2X2X2X2X2X2X2X2X",
"2X2X2X2X2X2X  4 A %.w.Y.Y.I.T.y.U.E.r.@.o.r v.OXOX#XOXOXOXOXOX}.p./ Y K y %       2X2X2X2X2X",
"2X2X2X2X2X  + ;.E.I.H.:.Q M n @.I.y.U.U.E. .~ oX X XOXOXOXOXOXoXOX#XOX}.`.M._ y o     2X2X2X",
"2X2X2X    X O M Z m j d / d.i.q 6.Y.Y.U.Y.2.d _.OXOX.X'.OXOXOXOXOXOX|.OXOXOXoX`.f.T -     2X",
"2X2X2X  u f.p.i.i.d.N._.].!.` e 0.Y.E.E.U.K.j m.#X{.) D !.OXOX|.OXOXOXOXOXOXOX#X+XV.a     2X",
"2X2X2X  G ~._.(.(.B.f./ a r M ,.R.t.t.t.U.T.n h.oX` e q C.+XOX XOXOXOXOX|.@XOX.Xf.q     2X2X",
"2X2X2X  X 8 i F F H T R = <.T.Y.U.U.U.U.U.I.M p.d.e <.j M.OXOXOX|.OXOXOX|.OX].) %   2X2X2X2X",
"2X2X2X2X  q ).=X=X:X<X<XR  .Y.t.U.U.U.U.U.Y.A K e >.K.j N.OX#X#XOXOX|.|.+X~.P X   2X2X2X2X2X",
"2X2X2X2X  } :X1X,X,X,X,XZ.m U.t.t.U.U.R.U.E.Q + ..G.5.r ^.OX#XOXoXOXOX Xb.p   . 2X2X2X2X2X2X",
"2X2X2X2X  ' s k.,X,X,X,XZ.m R.U.U.U.U.E.y.I.M M -.x #.H ].OXOXOXOXOXB._ :     2X2X2X2X2X2X2X",
"2X2X2X2X  U [ S.,X,X,X,X{ V E.U.U.U.U.t.Y.*.k 1.h $...~ #X#XOX@X|.OX_ X     2X2X2X2X2X2X2X2X",
"2X2X2X2X  ; S.,X,X,X,XW.t :.E.U.U.t.U.U.H.k %.V Z K.n p.OXOXOX|.OXoX_.) $   2X2X2X2X2X2X2X2X",
"2X2X2X2X2X  2 { S.%Xz.r ..R.U.U.U.t.U.Y.e.:.-.5 9.4.w !.#XOXOXOXOXOXoX.Xp.&   2X2X2X2X2X2X2X",
"2X2X2X2X2X  = n * t c -.I.t.U.U.U.U.U.Y.Y.L.n @.R.V / .X#XOXOXOX|.OX XOXXXp.%   2X2X2X2X2X2X",
"2X2X2X2X2X  2 5.5 ;.H.;. .V 8.Y.t.U.U.U.U.e.*.H.&.w !.OXOXOXOXOXOXOXOXOXOX.X` X   2X2X2X2X2X",
"2X2X2X2X2X  # 4.V ..e.X.A $.J.t.U.E.U.U.Y.Y.P.#.e h.OXOXOXOXOXOXOXOXOXOX@XOX].L X 2X2X2X2X2X",
"2X2X2X2X2X  + <.&.Z U.E.E.E.U.t.U.U.U.U.9.%.x 1 v.OX|.|.OXOXOXOXOX}..XXX}.}..X!.y   2X2X2X2X",
"2X2X2X2X2X2X  %.L.9.Y.Y.Y.U.I.I.U.U.U.U.@.c W d [.OXOXOXOX|.|.OXm.D L ~ K i a Y F     2X2X2X",
"2X2X2X2X2X2X  M %.#.&.3.8.L.&...I.Y.U.U.e.I.3.l [.OX|.OXOXOXOXOX!.p                   2X2X2X",
"2X2X2X2X2X2X  > m W M k 5 S %.5 w.Y.Y.U.U.Y.&.J .X|.OXOXOX@X|.OXOXf.o   2X2X2X2X2X2X2X2X2X2X",
"2X2X2X2X2X2X  + -.E.T.H.q.2.-...I.Y.Y.U.Y.I.C i.OX|.oXoXOX#X@XOXOX_.q   2X2X2X2X2X2X2X2X2X2X",
"2X2X2X2X2X2X2X  4 8.E.U.Y.Y.U.I.E.U.y.Y.E.:.w !.+X@XoXd.p.].+XOX@X.XL   2X2X2X2X2X2X2X2X2X2X",
"2X2X2X2X2X2X2X2X  h 4.Y.Y.Y.Y.Y.U.Y.Y.Y.4.t 8 d._.+X].i X F i.M.'.+X]   2X2X2X2X2X2X2X2X2X2X",
"2X2X2X2X2X2X2X2XX   2 #.8.I.E.E.E.P.0...< R s.U i a.C.6     X % y ( ) o   2X2X2X2X2X2X2X2X2X",
"2X2X2X2X2X2X2X2X2X2X    < M Q Q S n r - X Z.,X&Xq d u o   2X2X.     o X   2X2X2X2X2X2X2X2X2X",
"2X2X2X2X2X2X2X2X2X2X2X2X      d 1 { *XZ.7 Z.>X1XR x.z.O   2X2X2X2X2X    2X2X2X2X2X2X2X2X2X2X",
"2X2X2X2X2X2X2X2X2X2X2X2X2X2X  O./ [ ,X=Xd D.>X>Xk.' *X;   2X2X2X2X2X2X2X2X2X2X2X2X2X2X2X2X2X",
"2X2X2X2X2X2X2X2X2X2X2X2X2X2X  O.j.a -X' % A.>X>XZ.U %X7   2X2X2X2X2X2X2X2X2X2X2X2X2X2X2X2X2X",
"2X2X2X2X2X2X2X2X2X2X2X2X2X2X  a./.I R ( w A.>X>X&Xz %XH   2X2X2X2X2X2X2X2X2X2X2X2X2X2X2X2X2X",
"2X2X2X2X2X2X2X2X2X2X2X2X2X2X  +.^.g.q Z.U A.<X:X%Xs %X[   2X2X2X2X2X2X2X2X2X2X2X2X2X2X2X2X2X",
"2X2X2X2X2X2X2X2X2X2X2X2X2X2X  - 7 - > 9 ; U R z 0 0 =Xx.  2X2X2X2X2X2X2X2X2X2X2X2X2X2X2X2X2X",
"2X2X2X2X2X2X2X2X2X2X2X2X2X2X      O N 3 + E | c.| s :XA.O   2X2X2X2X2X2X2X2X2X2X2X2X2X2X2X2X",
"2X2X2X2X2X2X2X2X2X2X2X2X2X2X2X2XX . g b # E F.Q.} ( >X;X0   2X2X2X2X2X2X2X2X2X2X2X2X2X2X2X2X",
"2X2X2X2X2X2X2X2X2X2X2X2X2X2X2X2X2X  3 B 3 @ | =.= ( ).=Xs   2X2X2X2X2X2X2X2X2X2X2X2X2X2X2X2X",
"2X2X2X2X2X2X2X2X2X2X2X2X2X2X2X2X2X  , B B g # O     * 0 ;   2X2X2X2X2X2X2X2X2X2X2X2X2X2X2X2X",
"2X2X2X2X2X2X2X2X2X2X2X2X2X2X2X2X2X  @ N b b #   2X2X        2X2X2X2X2X2X2X2X2X2X2X2X2X2X2X2X",
"2X2X2X2X2X2X2X2X2X2X2X2X2X2X2X2X2X    , f 9 .   2X2X2X2X2X2X2X2X2X2X2X2X2X2X2X2X2X2X2X2X2X2X",
"2X2X2X2X2X2X2X2X2X2X2X2X2X2X2X2X2X  + x.%Xz.O   2X2X2X2X2X2X2X2X2X2X2X2X2X2X2X2X2X2X2X2X2X2X",
"2X2X2X2X2X2X2X2X2X2X2X2X2X2X2X2X  . + d U s .   2X2X2X2X2X2X2X2X2X2X2X2X2X2X2X2X2X2X2X2X2X2X",
"2X2X2X2X2X2X2X2X2X2X2X2X2X2X2X  . 9 q 9 ; 9 O   2X2X2X2X2X2X2X2X2X2X2X2X2X2X2X2X2X2X2X2X2X2X",
"2X2X2X2X2X2X2X2X2X2X2X2X2X2X2X  . * * % O * .   2X2X2X2X2X2X2X2X2X2X2X2X2X2X2X2X2X2X2X2X2X2X",
"2X2X2X2X2X2X2X2X2X2X2X2X2X2X2X                2X2X2X2X2X2X2X2X2X2X2X2X2X2X2X2X2X2X2X2X2X2X2X",
"2X2X2X2X2X2X2X2X2X2X2X2X2X2X2X2X2X2X2X2X2X2X2X2X2X2X2X2X2X2X2X2X2X2X2X2X2X2X2X2X2X2X2X2X2X2X",
"2X2X2X2X2X2X2X2X2X2X2X2X2X2X2X2X2X2X2X2X2X2X2X2X2X2X2X2X2X2X2X2X2X2X2X2X2X2X2X2X2X2X2X2X2X2X"
};
