/* XPM */
static const char *wall_2[] = {
/* columns rows colors chars-per-pixel */
"64 64 153 2 ",
"   c #000E14",
".  c #001115",
"X  c #00151B",
"o  c #00191E",
"O  c #001720",
"+  c #031D23",
"@  c #081F26",
"#  c #061E29",
"$  c #062126",
"%  c #092227",
"&  c #072128",
"*  c #0A242B",
"=  c #0E292E",
"-  c #10272D",
";  c #102A2F",
":  c #0D2631",
">  c #0E2932",
",  c #122C34",
"<  c #152E39",
"1  c #182F39",
"2  c #153136",
"3  c #193037",
"4  c #17313B",
"5  c #1A343D",
"6  c #1E393E",
"7  c #203A3F",
"8  c #1C3641",
"9  c #1F3943",
"0  c #223C45",
"q  c #243E49",
"w  c #254046",
"e  c #26414B",
"r  c #2A444D",
"t  c #2D494F",
"y  c #2C4651",
"u  c #2E4953",
"i  c #324C55",
"p  c #344F59",
"a  c #355157",
"s  c #385356",
"d  c #36525B",
"f  c #3A555C",
"g  c #3D595E",
"h  c #375560",
"j  c #3B5761",
"k  c #3E5A63",
"l  c #3F5D68",
"z  c #3F6068",
"x  c #415D65",
"c  c #425F69",
"v  c #436066",
"b  c #45626B",
"n  c #48656E",
"m  c #4C6A6F",
"M  c #466670",
"N  c #496671",
"B  c #476873",
"V  c #4C6A74",
"C  c #4F6E78",
"Z  c #516E76",
"A  c #506F79",
"S  c #4F717B",
"D  c #53737C",
"F  c #58787F",
"G  c #567681",
"H  c #587781",
"J  c #567983",
"K  c #5A7A84",
"L  c #567C89",
"P  c #5C7E89",
"I  c #5E818C",
"U  c #62838D",
"Y  c #68878E",
"T  c #638691",
"R  c #668995",
"E  c #6B8B95",
"W  c #678C99",
"Q  c #6B8E99",
"!  c #728E95",
"~  c #6D919D",
"^  c #71939D",
"/  c #7F959E",
"(  c #6E95A1",
")  c #7396A1",
"_  c #7599A4",
"`  c #7A9BA4",
"'  c #739BA9",
"]  c #7B9EA9",
"[  c #7DA1AC",
"{  c #7EA5B0",
"}  c #80A0A7",
"|  c #82A3AC",
" . c #87A8AF",
".. c #82A6B1",
"X. c #83A9B4",
"o. c #8AACB5",
"O. c #86ADB9",
"+. c #8AAFBA",
"@. c #8CB1BB",
"#. c #90B3BD",
"$. c #92B4BE",
"%. c #95B6BC",
"&. c #94B4BB",
"*. c #92B5C0",
"=. c #91B6C0",
"-. c #94B9C4",
";. c #9CBCC2",
":. c #9ABDC6",
">. c #9ABDC5",
",. c #97BDC8",
"<. c #96BECA",
"1. c #95BCC9",
"2. c #9BBFC8",
"3. c #99BFCA",
"4. c #A3BEC5",
"5. c #9FC0C9",
"6. c #9EC3CC",
"7. c #9CC2CC",
"8. c #9FC7D1",
"9. c #9FC8D3",
"0. c #A6C6CB",
"q. c #A0C3CD",
"w. c #A5C5CB",
"e. c #A7C9D1",
"r. c #A6CCD6",
"t. c #A3CAD5",
"y. c #AFCBD3",
"u. c #AECCD1",
"i. c #ACCCD2",
"p. c #AECCD4",
"a. c #AACBD2",
"s. c #A8CFDA",
"d. c #AAD1DC",
"f. c #B0D0D7",
"g. c #B2D2D8",
"h. c #B1D5DC",
"j. c #B8D6DC",
"k. c #AED6E1",
"l. c #B2DAE4",
"z. c #BDDCE3",
"x. c #BADCE3",
"c. c #BCDFE8",
"v. c #BBE2EB",
"b. c #BEE8F1",
"n. c #C2DFE3",
"m. c #C4E5EB",
"M. c #C4E6ED",
"N. c #C9E7EC",
"B. c #C4EBF4",
"V. c #C5EFF8",
"C. c #CDF0F6",
"Z. c #D1F7FA",
"A. c #D9FEFF",
/* pixels */
"+ + + + + $ + + # = & + $ $ $ & & & + + + + : * * $ + + + + + $ + X X o & & * * & & $ + + + + + o o & % + X X + + + + $ + + + + ",
"$ & > , 8 r k v f e u d q 4 4 4 , < = % $ : < y y 5 = + + $ , , 9 a j p , # + > * # = * + + $ $ 4 Q ` D E E r + + + > < 4 8 q , ",
"+ * 5 c %.n.z.N.b.*.o.@.3.0.i.g...a , $ * 5 [ M.q.h , * + * u T *.p.y.c.h 5 _ g.;.#.p * > + + $ y [ @.X.:.m.C.F X * i Q *.5.r.D ",
"+ * q H V c R J Q ,.6.i.e.$.| [ [ i = + * 5 F H V x 6 * + 9 P W W ( ' ( u D 8.@.^ [ V O = $ + * < J Q T P L _ v . 6 ~ { ,.} [ I ",
"+ * y ) 0 a M q a n b S B k i u p q = + & 0 d f v j 8 + $ k n K [ T V C 9 J ( R T V S u * + $ & e ] ~ V J ~ b 0 X 0 I D C c x V ",
"& : h ] r v q i f x b V V p j h f q = + & 0 n I v f 1 $ & b v f H V x k , G R T j f x j , + * * r X.B t v V v r X y T N v n b a ",
"$ & D 3.f c j j r f j i y i g g j q > $ > 5 i n h g 5 * > c v k h c c x < V P x f g f k 8 o * * 0 T u x v n c p + c I j j b b 0 ",
"$ : q X.v c x l k j j y 8 p g f k r : + , 4 f H c v 9 $ , r c N V v k C < K V f x f f k 5 o * , 4 u b U n k v y + v N g g j g 5 ",
"+ 9 q l D v c c v c b N g d f f i r & + * = , , = 5 : & : < 0 y u 8 r u * H V x j j j c 5 + $ > 5 a n j h x f 5 & a v b c f d * ",
"+ < I u x x c c b b j V V f g g i y & $ , e r l U V 8 + 5 C V U T M u r , j n x x a f b 5 + $ + i v j c j q 4 2 = a N x g V a + ",
"= u 4 l v x c c x V n x n n V v a 0 + = 4 _ a.o.K C 0 + 4 C P P P ^ ~ R q 0 b v v v j c 4 + + + r x f i w 0 q , * i x f a a 5 = ",
"* S 9 T S x c c N D b c f x A x K r $ & q V a r p f q # : x n V x v f v r * r x n D d 0 * $ + # 4 f r : % 5 , + , a a f g , , = ",
"o k f M S c c b N j j x g f v f V j & + r j f x g g w # 9 b f n a N b a r < + , 5 , + + + + + $ , 5 = * + X X + + e f d 6 5 4 + ",
"+ r r n n j c c k b n l j x x g f y + $ r v f g g j w # 9 H v J D x k f a d 8 < # # 6 P y + = & * 5 U | R V r & + , 9 0 2 & & + ",
"> < < H C h U j v c c c h j g g j 0 & & r n h j g g w $ 8 d A [ V f j j p d g f > 4 H ^ d , 2 * # V ^ Z b m a + + + + , 3 f 5 + ",
": 4 5 V j P H j b k c l k h f f f < & + r c d a f a w $ , q v a f x x g v x f g 8 5 D a y < * & < 5 r Z g 6 + & + 6 H ` C o.f & ",
"* 8 q i g P v C c j v l i g j b d = & + 5 p k V b a 4 + > k k g c x h f v g f g i : b b a , * $ + & * + + o + o o + 3 0 r 6 5 + ",
": 0 8 0 f F I P F A D r 0 x D p = > = * > 8 n I h r * , < k b g k k p d x f g g f < q r 8 , & $ $ = + + & , 6 c b p , X + + + $ ",
": 8 9 , * + , y f y y , > , & + = > * * = < 4 6 , : * = < r b k x j q c n g g x v 0 4 p q , + > > , p Q 6.+.| { 1.O.I f 8 5 & & ",
": , , 0 Z / U H V v V D A D H N a r > * * & & & * $ + & = < k V u 9 8 0 f c v x h 0 5 q y < & > $ 9 7.j.! c j i I h.d.X.D a > + ",
": * 5 Z V A C V V x x x b V V v g r + + + + = * & = & & $ , < < , , = > : < 5 5 4 0 < # + * = = + y K e * t f g t j Y R ~ f & + ",
"& * & + % @ * , , < 0 9 6 6 8 < = - 1 4 5 9 , 6 9 & & + + , q k b V v k f d t 2 + $ X 0 i 0 , = o T T r x n k d g i f i c j & + ",
"+ $ > j I T V a y 0 , & & $ + 9 F K P C C h 4 u q * + $ + k U U F F H n x j x v a > r K x x e * + C R f x b v d v Y v f l N = + ",
"& < 0 a i i y e q 6 5 < 4 : * 0 f b h y e 5 , : , , + $ $ y U f j d p i i i i i r , k C f f 2 & & r l k j g k n H n j k g j , + ",
"+ , 5 8 8 8 8 8 , , 4 , > = * : , , < 4 5 5 , 0 0 = & & > = = + X + % * % % & o . o = , = & & * + i ^ k c b j x c j g g j p = + ",
"+ $ > , < 4 < : , 4 = $ $ + + & = , , , 2 = $ = * & & $ $ * & d P T P S l e 4 0 p r 9 5 2 , , * + e ~ x x b k c f f v N x p = + ",
"& + + $ & $ + + + * * = > 5 4 = * & # + + , 5 * > , * & $ & l 9.l.l.x.v.,.Q T O.3.k.d.-.` n q $ * 4 H v j C x v f 0 N x c i * + ",
"+ * = * ; 2 & $ & + * 5 x D b v D U T ! E R C V u 8 > & X q 6.^ H C Y K F K R K v | ` | E u : + & 4 R H v j j h x V v c b y & + ",
"+ = e r , 5 r < + + = e v , e K O.-.&.o...W p E D e * $ X v 6.y b c V f v j a a a y a t i 4 * $ o 0 | a j V v 0 H c j j x t * & ",
"+ + 0 m ^ E r 4 $ $ , i k ) ,.) ^ M S v b n a x T y & + X w 7.n c v x v V b f g n x x x f < * & X 9 Y h N a : : 0 n D Z C q > & ",
"+ + b o.o.] d , * + 2 j ) @.K V x c K v v V x f j y & + * , n D f j V v x k x f k y y d r 5 & + $ & 9 < , y Q H a < 8 y 5 > * o ",
"o $ j C e a g 8 = + + n b l V c v l V x j K D j g e * + = = , u j h a y a a y f V I R F n 0 < * % = + p +.Z.A.V.B.x.l + < 9 + + ",
"+ * v I g f a 0 , $ o f C x N v c c c k g D c k d r * + $ = J ..[ U c d u 5 h U U V f i f 0 8 * , , T B.] ) -.X.^ E H q 5 4 > & ",
"+ $ l J a V H 5 * $ + j n x x x c x k k x v c k j y > $ + & r p r r p a f 8 i y i i i 5 8 9 * o 2 = R Y j h h y f f j v 8 , , $ ",
"+ + e k f b j : & $ $ f V f V V x v n x f k x g f 8 , & + + + & , > = = , > = , , , , , , + + & > 5 F l D T ^ ) V f g h 9 , > * ",
"+ & , i g i q 5 * $ < , v v C D i N H j x c f a r < > + + = = = & $ * & & $ + $ $ $ * + o $ & * > d V x V A D n k g f y y , , , ",
"$ $ 5 8 r 8 r q > + , 4 u v 0 5 r V f j v c j j c r > + & 8 8 9 0 9 = * & + $ $ * , = * $ * + * = c v g f f i f x f x i 5 < : , ",
"* $ 4 5 5 > < > * $ * , < 9 C ~ ) C H F c c b j i 0 , $ + r x g v u = * , , : * , 5 , 5 < & + * * f v i N K V x v b V q < , , & ",
"+ $ + + + + + + & + % : 8 K Y N h k x x x V v k d , < $ o > 5 5 0 , , 4 6 b _ ;.w.a.>.p > > + * & e v e e d M u 9 y e e 0 , > + ",
"+ + * 0 = + * * $ $ $ * r n a b b c b c n C v g f 9 , $ + , < 5 * + # 9  .v.z.%.@.3.:.E 0 4 & $ & 0 k q 0 5 9 q u y e q , , & + ",
"+ $ w t w = & 5 , * $ : 8 l a v l V n c v C a a j 4 , + + + + $ & j Y :.l.K i d D ~ M f H 0 * & $ = 5 5 8 9 9 0 9 0 0 , * & + + ",
"+ 2 , y E @.D 6 = $ * : < q 0 q w r t j C v A b e 5 , o + * + 5 +.p.| U j a v x v x n x j i < * + o X o + $ $ & $ $ $ + + $ + + ",
"* $ , o.h.^ ) W , o & = , 5 d D K z i i j i 6 + , * + + + + + e { p r h c x c b c b b c c p q & * = 5 * + + + + + + o + + + + + ",
"+ $ i U j r i b q o + + + $ $ & , , & . X X   X X + & + + + $ k ~ y v v c c c c c b b k k f q , , r e 0 5 < + + + + * * & , * + ",
"+ = H V s x f g r + + , = X & 5 , = r C F V V H P K q + + * & M Z f c b c b v x c c x D K j a 5 + 6 c ..-.:...R u o 2 > q j & + ",
"$ o f D f g f x r o , U X.~ O.-.^ ..-.X.` t.3._ U n 5 & + & # k U f v n v c N x b c x n P T b 5 & < X.+.V k D D i & 5 * C B + $ ",
"& + , p f g f p 6 o * h R H U g e k v a d D h a a f , & + * + v ^ k n c c c l V c c x j j V p 8 5 , P H r g a f r $ 5 ; K u + $ ",
"+ + = b j x a 0 , + + t V a g j v j j p i t f n x g , & + * # u [ b c b c j H C k v j l v V f q > 0 n T i c v v 6 o 5 > q 0 + + ",
"+ + = j v i 9 r 4 = = , q y a u r 0 q u f f j f 9 0 * + + $ & e ] D f c x v V b C b b v c b x e : 5 q a a a a r > + * = 6 9 + + ",
"+ & * > , & $ + 5 < $ + X X X X + = * * = & = 0 4 # & & + & + j ,.I D D k n P P D N c k c c l e , 5 , 0 y 0 8 0 = + > = > < & + ",
"+ + + + < 6 , * 5 < 9 n x n J P V J [ _ R T R U n f 9 = + & X X.1.~ T l K n c N c c c c c c g e > 4 : 5 r y e 0 * * = & > 4 $ + ",
"+ & 5 y y m T [ I * A @.a.4.w.s.v.X.) | [ U Z c Z f 5 : + $ X D Q y b U F j l x c b c c x c f e * + + $ $ + $ $ $ = + + > > + + ",
"+ + 5 r ` 3.| Q r f F v h c V H [ B S v j a h f g v 5 > + $ + 5 j q U b N x x k l l x j f j l y + * * > + + + + $ & & + + + + + ",
"+ + < Q ~ V x e y K l b j V C l a v D j g g f x g a q > + & o r A v b v n x l k j h j p j x f r $ * 5 0 M Q ) y $ + $ + , 5 * o ",
"+ + 5 K k i u < c v k v c k b A v x n g f g x g g f r , + + & a f x x v V l f f g j g f g f k e $ * < H k.` _ I : + = 5 5 a r o ",
"+ + 6 f e i N y v N x c c c v x c b x g l v g f g g i * + + = f h k k x N j f j c j g g f g f 4 + = * @.s.V n v < $ * 7 r ` K X ",
"+ + 6 j x n b d N n x v c l k x x l l x g g j k g g q $ + + & h g f f g f x v f x n f a a f i > & > = T U p g g 4 + = ; v ` i + ",
"+ + , b c c b c f l c D x f k h g g j h g g k k g f 8 * + + $ e j f f g f v D d b f j i H n 0 < $ > = n Z d g f 5 o , , a D d & ",
"$ + + V v g k h j k x I T j f j j f f g f f j g j q 9 * + + $ > y g j D F W P N x f g f y y 8 > + , > f f f V i , + ; 0 e x f = ",
"$ + + 5 l i i p a a V P P I n c x j g g v n v j r 5 8 & + + + * < r l c J I a V x v n j 9 9 8 * + = * c k g K 5 , + , 0 t k p % ",
"* + + = 4 q a l S k 0 r q y p f j k l k h y e 0 < 4 < = + + $ & 8 9 r y 0 0 0 q 0 q 0 r u 0 4 & + * & x a y h , , + = 0 u j e * ",
"& + + & , 8 0 y h 9 0 5 < < < 5 5 5 8 < , , > > * * : * $ + + & < 4 5 9 9 8 < 4 8 0 0 8 4 < : * + * = j f , > < > + = $ q V e * ",
"$ + & * & & > , : : + + + + & & & & * , , > : * = = $ & * o + $ * * = * > > > : * > > > : * : > + + + 0 r > , > * = $ + + 6 = & ",
"+ + + & * & + + $ $ + + + + + + + + + $ : > > > : * & + + + + + $ + + $ + $ + + + + + + + $ $ + * + + $ + $ + $ * & $ + + X $ + "
};
